<svg width="24" height="24" viewBox="0 0 24 24" fill="none" xmlns="http://www.w3.org/2000/svg">
<rect width="24" height="24" rx="6" fill="#00BFA5"/>
<path d="M17.9094 17.1921H17.3208C16.8544 17.1901 16.393 17.0991 15.9629 16.9242C15.5327 16.7493 15.1424 16.4939 14.814 16.1726C14.4856 15.8513 14.2257 15.4704 14.0491 15.0517C13.8725 14.633 13.7826 14.1846 13.7846 13.7321V10.2721H17.9094C18.2235 10.2707 18.5242 10.1484 18.7453 9.93198C18.9664 9.71558 19.0899 9.42284 19.0886 9.11814C19.0898 8.81348 18.9664 8.52078 18.7452 8.30444C18.5241 8.08809 18.2235 7.96579 17.9094 7.96445H13.7832V5.65445C13.7838 5.50356 13.7539 5.35402 13.695 5.21437C13.6361 5.07472 13.5494 4.94769 13.4399 4.84053C13.3305 4.73338 13.2003 4.64819 13.0568 4.58985C12.9134 4.5315 12.7595 4.50114 12.604 4.50049C12.4485 4.50114 12.2946 4.5315 12.1511 4.58985C12.0077 4.64819 11.8775 4.73338 11.768 4.84053C11.6585 4.94769 11.5719 5.07472 11.513 5.21437C11.4541 5.35402 11.4241 5.50356 11.4248 5.65445V13.7321C11.4202 15.2549 12.0384 16.7173 13.1436 17.7986C14.2489 18.8798 15.7511 19.4917 17.3208 19.5001H17.9094C18.2227 19.4969 18.5221 19.3739 18.7424 19.1578C18.9628 18.9417 19.0864 18.65 19.0864 18.3461C19.0864 18.0421 18.9628 17.7504 18.7424 17.5344C18.5221 17.3183 18.2227 17.1953 17.9094 17.1921Z" fill="white"/>
<path opacity="0.33" d="M6.98751 4.5C7.3864 4.5 7.77633 4.61475 8.10799 4.82973C8.43965 5.04472 8.69815 5.35029 8.8508 5.70779C9.00345 6.0653 9.04339 6.45869 8.96557 6.83822C8.88775 7.21775 8.69567 7.56637 8.41361 7.83999C8.13155 8.11362 7.77219 8.29996 7.38097 8.37545C6.98975 8.45094 6.58424 8.4122 6.21571 8.26411C5.84719 8.11603 5.53221 7.86526 5.3106 7.54351C5.08899 7.22176 4.9707 6.84349 4.9707 6.45652C4.9707 5.93762 5.18319 5.43997 5.56141 5.07305C5.93964 4.70613 6.45262 4.5 6.98751 4.5" fill="white"/>
<path opacity="0.66" d="M6.98751 10.1086C7.3864 10.1086 7.77633 10.2234 8.10799 10.4384C8.43965 10.6534 8.69815 10.9589 8.8508 11.3164C9.00345 11.6739 9.04339 12.0673 8.96557 12.4469C8.88775 12.8264 8.69567 13.175 8.41361 13.4486C8.13155 13.7223 7.77219 13.9086 7.38097 13.9841C6.98975 14.0596 6.58424 14.0208 6.21571 13.8728C5.84719 13.7247 5.53221 13.4739 5.3106 13.1521C5.08899 12.8304 4.9707 12.4521 4.9707 12.0652C4.9707 11.5463 5.18319 11.0486 5.56141 10.6817C5.93964 10.3148 6.45262 10.1086 6.98751 10.1086" fill="white"/>
<path d="M6.98751 15.5872C7.3864 15.5872 7.77633 15.7019 8.10799 15.9169C8.43965 16.1319 8.69815 16.4374 8.8508 16.795C9.00345 17.1525 9.04339 17.5459 8.96557 17.9254C8.88775 18.3049 8.69567 18.6535 8.41361 18.9271C8.13155 19.2008 7.77219 19.3871 7.38097 19.4626C6.98975 19.5381 6.58424 19.4994 6.21571 19.3513C5.84719 19.2032 5.53221 18.9524 5.3106 18.6307C5.08899 18.3089 4.9707 17.9306 4.9707 17.5437C4.9707 17.0248 5.18319 16.5271 5.56141 16.1602C5.93964 15.7933 6.45262 15.5872 6.98751 15.5872" fill="white"/>
</svg>
