<svg width="24" height="24" viewBox="0 0 24 24" fill="none" xmlns="http://www.w3.org/2000/svg">
<path fill-rule="evenodd" clip-rule="evenodd" d="M19.0127 12.1614C19.0127 11.6674 18.973 11.1735 18.8935 10.6896H12.1454V13.482H16.0114C15.8524 14.3793 15.3356 15.1857 14.5803 15.6898V17.5044H16.8859C18.2375 16.2443 19.0127 14.3793 19.0127 12.1614Z" fill="#4285F4"/>
<path fill-rule="evenodd" clip-rule="evenodd" d="M12.1451 19.2587C14.0731 19.2587 15.703 18.6135 16.8856 17.5046L14.58 15.69C13.934 16.1335 13.1091 16.3856 12.1451 16.3856C10.2767 16.3856 8.69654 15.1053 8.13006 13.3915H5.75482V15.2666C6.96729 17.7163 9.44191 19.2587 12.1451 19.2587Z" fill="#34A853"/>
<path fill-rule="evenodd" clip-rule="evenodd" d="M8.13021 13.3913C7.83206 12.4941 7.83206 11.5162 8.13021 10.6089V8.7439H5.75497C4.73133 10.7904 4.73133 13.2098 5.75497 15.2563L8.13021 13.3913Z" fill="#FBBC04"/>
<path fill-rule="evenodd" clip-rule="evenodd" d="M12.1451 7.61488C13.1687 7.59472 14.1526 7.98788 14.8881 8.70364L16.9353 6.62694C15.6334 5.39704 13.924 4.72161 12.1451 4.74177C9.44191 4.74177 6.96729 6.29426 5.75482 8.74397L8.13006 10.6191C8.69654 8.89518 10.2767 7.61488 12.1451 7.61488Z" fill="#EA4335"/>
</svg>
