<svg width="24" height="24" viewBox="0 0 24 24" fill="none" xmlns="http://www.w3.org/2000/svg">
<path d="M12.4913 10.3347C12.2725 10.4984 11.9656 10.5042 11.734 10.3625C11.509 10.2249 11.38 9.95818 11.4303 9.69821C11.4358 9.66965 11.4438 9.64168 11.4533 9.61423C11.4245 9.69098 11.4 9.756 11.4575 9.6014C11.5163 9.44534 11.4916 9.51193 11.4626 9.58926C11.5609 9.3453 11.8101 9.19011 12.0735 9.19479C12.3487 9.19965 12.6042 9.37581 12.6987 9.63341C12.791 9.88506 12.7073 10.1732 12.4913 10.3347ZM19.754 9.40356C19.5457 8.90275 19.2117 8.45991 18.78 8.12734C18.327 7.77825 17.7802 7.55787 17.2126 7.48187C16.8814 7.43754 16.5455 7.4443 16.2158 7.49724C15.871 7.55261 15.5456 7.66404 15.2257 7.80062C15.069 7.86755 14.9137 7.93754 14.7573 8.00533C14.2804 8.28663 13.7424 8.44673 13.1865 8.45401C12.8986 8.45777 12.6113 8.42569 12.33 8.36437C12.182 8.33212 12.0357 8.29189 11.8915 8.24537C11.7517 8.20017 11.6102 8.17133 11.4636 8.1589C11.1305 8.13064 10.7949 8.17531 10.4642 8.21051L9.66583 8.29628C9.66473 8.29472 9.66386 8.29368 9.663 8.29212L9.63959 8.29449C9.43672 8.07059 9.18571 7.89448 8.93984 7.7208C8.86973 7.67127 8.80153 7.62798 8.71345 7.61994C8.46429 7.61763 8.4051 7.91425 8.39071 8.10648C8.37314 8.34108 8.40123 8.58226 8.4551 8.81085C8.47573 8.89841 8.49856 8.99118 8.5422 9.07076C8.5422 9.07076 8.58063 9.24068 8.64797 9.39951C8.56139 9.50476 8.49186 9.6244 8.44354 9.75155C8.4266 9.79629 8.40938 9.83542 8.38297 9.87558C8.30535 9.99378 8.21143 10.102 8.11912 10.2089C7.80702 10.5703 7.4744 10.9145 7.14155 11.257C6.98567 11.4174 5.64233 11.8607 4.86872 12.1067C4.94318 8.56429 7.83777 5.71548 11.398 5.71548C13.0837 5.71548 14.6201 6.35425 15.7788 7.40274C15.9285 7.35934 16.073 7.32616 16.2158 7.30328C16.4108 7.27195 16.6079 7.25606 16.8016 7.25606C16.8211 7.25606 16.8405 7.25669 16.8599 7.25704C15.5072 5.77703 13.5611 4.84853 11.398 4.84853C7.31222 4.84853 4 8.16075 4 12.2465C4 16.3323 7.31222 19.6445 11.398 19.6445C15.1536 19.6445 18.2552 16.846 18.7321 13.2206C18.7035 13.238 18.6754 13.2561 18.6461 13.2726C18.4601 13.3776 18.2669 13.4558 18.0801 13.5314C18.0156 13.5575 17.9548 13.5821 17.8941 13.6078C17.8551 13.6242 17.8152 13.6418 17.7753 13.6594C17.1485 16.5014 14.6708 18.6483 11.6707 18.7716C12.3191 17.8057 13.6206 15.9074 14.002 15.6463C14.5243 15.2887 15.0528 14.9399 15.5914 14.6071C16.0844 14.3024 16.5859 14.0096 17.1031 13.7468C17.3273 13.6329 17.5546 13.5247 17.7865 13.4267C18.0333 13.3225 18.2844 13.2335 18.5183 13.1015C18.9397 12.8637 19.3043 12.5294 19.5634 12.1218C19.8113 11.7318 19.9578 11.2828 19.992 10.8232C20.0281 10.3393 19.9403 9.85125 19.754 9.40356Z" fill="white"/>
</svg>
