<svg width="24" height="24" viewBox="0 0 24 24" fill="none" xmlns="http://www.w3.org/2000/svg">
<rect width="24" height="24" rx="6" fill="#BEE4FE"/>
<path d="M16.9659 8.31151C16.8781 8.25981 16.7701 8.25621 16.6791 8.30192C16.5882 8.34773 16.5268 8.43652 16.5159 8.53772C16.5051 8.63612 16.4883 8.73451 16.4673 8.83773C15.8799 11.5035 14.7003 12.8001 12.8601 12.8001H10.1601C10.0177 12.8004 9.89516 12.9006 9.86669 13.0401L8.9667 17.2587L8.80591 18.3327C8.71346 18.8211 9.03442 19.292 9.52278 19.3844C9.57664 19.3946 9.63129 19.3999 9.6861 19.4001H11.4921C11.906 19.4014 12.2669 19.1189 12.3651 18.7167L13.0947 15.8001H14.6601C16.5075 15.8001 17.7843 14.3271 18.2553 11.6523C18.5662 10.3787 18.0518 9.04605 16.9659 8.31151Z" fill="#03A9F4"/>
<path d="M16.4003 6.06922C15.8074 5.39678 14.9567 5.00804 14.0603 5.00002H9.09228C8.34879 4.99603 7.71581 5.53999 7.6079 6.2756L6.0653 16.5662C5.99141 17.0577 6.32995 17.5161 6.82149 17.59C6.8661 17.5967 6.91118 17.6 6.9563 17.6H9.26029C9.40266 17.5997 9.52523 17.4995 9.55369 17.36L10.4027 13.4H12.8627C14.9975 13.4 16.4081 11.9078 17.0561 8.96001C17.0822 8.84251 17.1022 8.72376 17.1161 8.60421C17.2665 7.69479 17.0041 6.76562 16.4003 6.06922Z" fill="#283593"/>
</svg>
