<svg width="24" height="24" viewBox="0 0 24 24" fill="none" xmlns="http://www.w3.org/2000/svg">
<path d="M9.87717 4.01075C9.45566 4.01075 9.05141 4.17909 8.75336 4.47874C8.4553 4.77839 8.28786 5.18481 8.28786 5.60858C8.28786 6.03236 8.4553 6.43877 8.75336 6.73842C9.05141 7.03808 9.45566 7.20642 9.87717 7.20642H11.4665V5.60858C11.4669 5.39863 11.4261 5.19067 11.3464 4.99662C11.2666 4.80257 11.1496 4.62625 11.0019 4.4778C10.8543 4.32934 10.6789 4.21166 10.4859 4.13151C10.2929 4.05136 10.086 4.01032 9.87717 4.01075ZM9.87717 8.26807H5.65322C5.23171 8.26807 4.82746 8.43641 4.5294 8.73607C4.23135 9.03572 4.0639 9.44214 4.0639 9.86591C4.0639 10.2897 4.23135 10.6961 4.5294 10.9958C4.82746 11.2954 5.23171 11.4637 5.65322 11.4637H9.88784C10.0966 11.463 10.3031 11.421 10.4956 11.3401C10.6882 11.2591 10.863 11.1408 11.0101 10.992C11.1572 10.8431 11.2737 10.6665 11.3529 10.4724C11.4321 10.2783 11.4725 10.0704 11.4718 9.86055C11.4711 9.65071 11.4293 9.44308 11.3488 9.24949C11.2683 9.0559 11.1506 8.88015 11.0026 8.73227C10.8545 8.5844 10.6789 8.4673 10.4858 8.38765C10.2927 8.308 10.0859 8.26737 9.87717 8.26807Z" fill="#36C5F0"/>
<path d="M19.9361 9.86589C19.9361 9.44211 19.7687 9.0357 19.4706 8.73605C19.1726 8.43639 18.7683 8.26805 18.3468 8.26805C17.9253 8.26805 17.5211 8.43639 17.223 8.73605C16.925 9.0357 16.7575 9.44211 16.7575 9.86589V11.4637H18.3468C18.5559 11.465 18.7631 11.4246 18.9565 11.3447C19.1499 11.2649 19.3256 11.1472 19.4735 10.9986C19.6213 10.85 19.7383 10.6733 19.8178 10.4789C19.8972 10.2844 19.9374 10.0761 19.9361 9.86589ZM15.7015 9.86589V5.59784C15.7015 5.17406 15.5341 4.76765 15.236 4.468C14.938 4.16834 14.5337 4 14.1122 4C13.6907 4 13.2864 4.16834 12.9884 4.468C12.6903 4.76765 12.5229 5.17406 12.5229 5.59784V9.86589C12.524 10.2893 12.6918 10.6951 12.9896 10.9945C13.2874 11.2939 13.691 11.4626 14.1122 11.4637C14.3215 11.4659 14.5291 11.426 14.7229 11.3465C14.9167 11.2669 15.0928 11.1493 15.2408 11.0005C15.3888 10.8517 15.5058 10.6747 15.5849 10.4799C15.664 10.2851 15.7037 10.0763 15.7015 9.86589Z" fill="#2EB67D"/>
<path d="M14.1122 19.9996C14.5337 19.9996 14.938 19.8313 15.236 19.5316C15.5341 19.232 15.7015 18.8255 15.7015 18.4018C15.7015 17.978 15.5341 17.5716 15.236 17.2719C14.938 16.9723 14.5337 16.8039 14.1122 16.8039H12.5229V18.4018C12.524 18.8252 12.6918 19.231 12.9896 19.5304C13.2874 19.8298 13.691 19.9985 14.1122 19.9996ZM14.1122 15.7316H18.3468C18.7683 15.7316 19.1726 15.5632 19.4706 15.2636C19.7687 14.9639 19.9361 14.5575 19.9361 14.1337C19.9361 13.71 19.7687 13.3035 19.4706 13.0039C19.1726 12.7042 18.7683 12.5359 18.3468 12.5359H14.1122C13.6907 12.5359 13.2864 12.7042 12.9884 13.0039C12.6903 13.3035 12.5229 13.71 12.5229 14.1337C12.5229 14.5575 12.6903 14.9639 12.9884 15.2636C13.2864 15.5632 13.6907 15.7316 14.1122 15.7316Z" fill="#ECB22E"/>
<path d="M4.06391 14.1342C4.06503 14.5576 4.23284 14.9634 4.53065 15.2628C4.82846 15.5622 5.23206 15.7309 5.65322 15.7321C6.07439 15.7309 6.47798 15.5622 6.77579 15.2628C7.07361 14.9634 7.24141 14.5576 7.24254 14.1342V12.5364H5.65322C5.44439 12.536 5.23753 12.577 5.04452 12.6571C4.8515 12.7373 4.67613 12.855 4.52847 13.0034C4.3808 13.1519 4.26375 13.3282 4.18403 13.5222C4.10431 13.7163 4.06349 13.9243 4.06391 14.1342ZM8.29853 14.1342V18.4023C8.29853 18.826 8.46597 19.2325 8.76403 19.5321C9.06208 19.8318 9.46633 20.0001 9.88784 20.0001C10.3094 20.0001 10.7136 19.8318 11.0117 19.5321C11.3097 19.2325 11.4772 18.826 11.4772 18.4023V14.1342C11.476 13.7108 11.3082 13.305 11.0104 13.0056C10.7126 12.7062 10.309 12.5375 9.88784 12.5364C9.67901 12.536 9.47215 12.577 9.27914 12.6571C9.08612 12.7373 8.91075 12.855 8.76309 13.0034C8.61542 13.1519 8.49837 13.3282 8.41865 13.5222C8.33893 13.7163 8.2981 13.9243 8.29853 14.1342Z" fill="#E01E5A"/>
</svg>
