<svg width="24" height="24" viewBox="0 0 24 24" fill="none" xmlns="http://www.w3.org/2000/svg">
<path d="M14.2224 6H11.6439C11.6458 8.04258 10.6565 9.96537 8.9769 11.1836L7.95612 11.9438L11.9153 17.2139H15.1724L11.5259 12.3643C13.2629 10.6818 14.2345 8.38861 14.2224 6Z" fill="black"/>
<path d="M7.64338 6H5V17.2139H7.64338V6Z" fill="black"/>
<path d="M17.4834 14.4608C16.659 14.4737 16.0014 15.1364 16.0146 15.9411C16.0278 16.7457 16.7066 17.3877 17.531 17.3749C18.3369 17.3623 18.987 16.7276 18.9998 15.9411C19.013 15.1364 18.3554 14.4737 17.531 14.4608C17.5151 14.4606 17.4993 14.4606 17.4834 14.4608Z" fill="black"/>
</svg>
