<svg width="24" height="24" viewBox="0 0 24 24" fill="none" xmlns="http://www.w3.org/2000/svg">
<rect width="24" height="24" rx="6" fill="#7372EE"/>
<path d="M17.5279 6.27975C19.624 7.25371 20.3589 10.1322 18.5303 12.0299C16.7607 13.8669 14.9607 15.6735 13.1771 17.4963C12.9358 17.7429 12.6336 17.8736 12.3266 18C12.1698 18 12.0129 18 11.8567 18C11.4652 17.938 11.1637 17.7212 10.8895 17.4418C9.11383 15.6277 7.40074 13.7566 5.62443 11.9432C5.33324 11.6433 5.14722 11.4252 5.03962 10.976C4.98065 10.6718 5.00497 10.4246 5.00497 10.4017C5.10406 10.0015 5.284 9.66442 5.66029 9.45934C6.35392 9.08141 6.97763 9.18612 7.605 9.81993C8.74179 10.9686 9.87007 12.1259 11.002 13.2796C11.295 13.5782 11.5953 13.8694 11.878 14.1773C12.0579 14.3737 12.1899 14.365 12.3747 14.1754C13.8336 12.6773 15.3023 11.1892 16.7632 9.69354C17.0708 9.3788 17.092 8.97609 16.8312 8.7264C16.5674 8.47486 16.1279 8.52814 15.844 8.84784C15.0628 9.72823 14.2203 10.5485 13.3893 11.3781C12.5734 12.1922 11.7601 12.1668 10.9534 11.3453C10.1138 10.4909 9.27553 9.63468 8.43601 8.7803C8.00379 8.34042 7.836 7.81751 7.99284 7.21653C8.27005 6.1546 9.56915 5.78225 10.3594 6.53873C10.8731 7.03066 11.3588 7.55357 11.8598 8.05914C12.1449 8.34723 12.1734 8.34661 12.4519 8.06595C12.7303 7.78529 13.0111 7.50649 13.2823 7.21839C13.9254 6.53501 14.8245 6.07344 15.7875 6.00405C16.1783 5.98546 16.5255 6.03689 16.5255 6.03689C16.5255 6.03689 17.2142 6.13416 17.5279 6.27975Z" fill="white"/>
</svg>
