<svg width="300" height="272" viewBox="0 0 300 272" fill="none" xmlns="http://www.w3.org/2000/svg">
<rect width="300" height="272" rx="24" transform="matrix(1 0 0 -1 0 272)" fill="#F2F2F1"/>
<rect x="65.6062" y="98.6064" width="168.787" height="58.7872" rx="29.3936" fill="white"/>
<g clip-path="url(#clip0_1353_64176)">
<rect x="79.6562" y="112.656" width="30.6872" height="30.6872" rx="15.3436" fill="white"/>
<path d="M97.7654 122.958H92.2334V132.899H97.7654V122.958Z" fill="#FF5F00"/>
<path d="M92.585 127.929C92.5841 126.971 92.8011 126.026 93.2194 125.165C93.6378 124.304 94.2466 123.549 94.9997 122.958C94.0671 122.225 92.947 121.769 91.7675 121.642C90.5879 121.516 89.3966 121.724 88.3296 122.242C87.2626 122.761 86.363 123.569 85.7336 124.574C85.1043 125.58 84.7705 126.742 84.7705 127.929C84.7705 129.115 85.1043 130.277 85.7336 131.283C86.363 132.288 87.2626 133.097 88.3296 133.615C89.3966 134.134 90.5879 134.341 91.7675 134.215C92.947 134.088 94.0671 133.632 94.9997 132.899C94.2466 132.308 93.6378 131.553 93.2195 130.692C92.8011 129.831 92.5841 128.886 92.585 127.929Z" fill="#EB001B"/>
<path d="M105.228 127.929C105.228 129.115 104.894 130.277 104.265 131.283C103.636 132.288 102.736 133.097 101.669 133.615C100.602 134.134 99.4107 134.341 98.2312 134.215C97.0517 134.088 95.9317 133.632 94.999 132.899C95.7515 132.307 96.3598 131.553 96.7781 130.692C97.1964 129.831 97.4137 128.886 97.4137 127.929C97.4137 126.971 97.1964 126.027 96.7781 125.166C96.3598 124.305 95.7515 123.55 94.999 122.958C95.9317 122.225 97.0517 121.769 98.2312 121.642C99.4107 121.516 100.602 121.724 101.669 122.242C102.736 122.761 103.636 123.569 104.265 124.574C104.894 125.58 105.228 126.742 105.228 127.929Z" fill="#F79E1B"/>
</g>
<rect x="78.3024" y="111.303" width="33.3949" height="33.3949" rx="16.6975" stroke="#F2F2F1" stroke-opacity="0.4" stroke-width="2.7077"/>
<path d="M115.196 124.209V133H116.287V129.037H120.827V133H121.918V124.209H120.827V128.034H116.287V124.209H115.196ZM127.983 124.222H124.622V133H125.713V129.627H127.957L129.776 133H131.005L129.036 129.414C129.6 129.263 130.052 128.962 130.39 128.511C130.729 128.059 130.904 127.533 130.904 126.918C130.904 126.379 130.779 125.902 130.541 125.501C130.29 125.1 129.951 124.786 129.512 124.561C129.061 124.335 128.559 124.222 127.983 124.222ZM125.713 128.624V125.225H127.907C128.472 125.225 128.923 125.388 129.274 125.689C129.613 126.003 129.788 126.416 129.788 126.918C129.788 127.445 129.613 127.859 129.274 128.16C128.923 128.473 128.472 128.624 127.895 128.624H125.713ZM132.724 129.915V130.856H137.326V133H138.379V130.856H139.796V129.89H138.379V124.222H137.125L132.724 129.915ZM133.852 129.89L137.326 125.401V129.89H133.852ZM140.75 124.222V125.188H145.791L141.49 133H142.631L146.945 124.962V124.222H140.75ZM149.126 124.222V133H154.882V131.997H150.217V129.037H153.966V128.034H150.217V125.225H154.719V124.222H149.126ZM162.649 129.175C162.285 128.812 161.846 128.573 161.332 128.473C161.834 128.373 162.223 128.147 162.523 127.796C162.812 127.445 162.962 127.006 162.962 126.467C162.962 126.015 162.837 125.601 162.599 125.25C162.36 124.899 162.022 124.636 161.57 124.435C161.119 124.247 160.592 124.147 159.99 124.147C159.1 124.147 158.385 124.372 157.859 124.824C157.319 125.275 157.043 125.902 157.043 126.692H158.097C158.097 126.203 158.285 125.815 158.636 125.526C158.987 125.238 159.451 125.087 160.028 125.087C160.567 125.087 161.006 125.225 161.357 125.476C161.708 125.739 161.884 126.09 161.884 126.529C161.884 126.993 161.708 127.37 161.37 127.645C161.019 127.934 160.53 128.072 159.89 128.072H159.2V128.987H159.953C160.63 128.987 161.169 129.125 161.545 129.388C161.922 129.664 162.11 130.028 162.11 130.492C162.11 130.994 161.909 131.382 161.52 131.683C161.132 131.984 160.642 132.135 160.053 132.135C159.401 132.135 158.887 131.972 158.486 131.646C158.084 131.32 157.884 130.868 157.884 130.291H156.805C156.805 131.157 157.094 131.834 157.67 132.335C158.247 132.837 159.012 133.075 159.99 133.075C160.617 133.075 161.182 132.975 161.671 132.762C162.147 132.561 162.523 132.26 162.787 131.884C163.05 131.508 163.188 131.069 163.188 130.567C163.188 130.003 163 129.539 162.649 129.175ZM168.735 124.222H165.625V133H168.823C169.851 133 170.629 132.787 171.181 132.36C171.732 131.934 172.008 131.332 172.008 130.58C172.008 129.426 171.356 128.736 170.077 128.486C170.579 128.36 170.967 128.122 171.243 127.783C171.507 127.445 171.644 127.018 171.644 126.492C171.644 125.789 171.381 125.225 170.88 124.824C170.378 124.423 169.663 124.222 168.735 124.222ZM166.716 128.034V125.213H168.785C169.35 125.213 169.789 125.338 170.09 125.589C170.39 125.84 170.554 126.178 170.554 126.617C170.554 127.069 170.39 127.407 170.09 127.658C169.776 127.909 169.337 128.034 168.785 128.034H166.716ZM166.716 132.009V129.012H168.823C169.475 129.012 169.989 129.15 170.353 129.414C170.704 129.677 170.892 130.053 170.892 130.542C170.892 131.006 170.704 131.37 170.353 131.621C170.002 131.884 169.488 132.009 168.823 132.009H166.716ZM173.201 124.222V125.225H176.048V133H177.139V125.225H179.985V124.222H173.201ZM184.431 124.222H183.403V125.275C183.403 125.501 183.34 125.689 183.24 125.827C183.14 125.965 182.989 126.028 182.789 126.028H181.359V126.968H182.776C183.052 126.968 183.253 126.918 183.378 126.805V133H184.431V124.222ZM186.651 129.915V130.856H191.253V133H192.306V130.856H193.723V129.89H192.306V124.222H191.052L186.651 129.915ZM187.779 129.89L191.253 125.401V129.89H187.779ZM198.979 124.222H195.869V133H199.066C200.095 133 200.872 132.787 201.424 132.36C201.976 131.934 202.252 131.332 202.252 130.58C202.252 129.426 201.599 128.736 200.32 128.486C200.822 128.36 201.211 128.122 201.487 127.783C201.75 127.445 201.888 127.018 201.888 126.492C201.888 125.789 201.625 125.225 201.123 124.824C200.621 124.423 199.907 124.222 198.979 124.222ZM196.96 128.034V125.213H199.029C199.593 125.213 200.032 125.338 200.333 125.589C200.634 125.84 200.797 126.178 200.797 126.617C200.797 127.069 200.634 127.407 200.333 127.658C200.019 127.909 199.581 128.034 199.029 128.034H196.96ZM196.96 132.009V129.012H199.066C199.718 129.012 200.233 129.15 200.596 129.414C200.947 129.677 201.135 130.053 201.135 130.542C201.135 131.006 200.947 131.37 200.596 131.621C200.245 131.884 199.731 132.009 199.066 132.009H196.96ZM204.594 130.279C204.719 130.793 204.882 131.244 205.108 131.621C205.384 132.085 205.748 132.448 206.199 132.699C206.65 132.95 207.165 133.075 207.767 133.075C208.356 133.075 208.883 132.95 209.347 132.699C209.798 132.448 210.162 132.097 210.425 131.646C210.676 131.194 210.814 130.693 210.814 130.128C210.814 129.551 210.688 129.037 210.438 128.586C210.187 128.147 209.836 127.808 209.397 127.558C208.945 127.319 208.444 127.194 207.867 127.194C207.29 127.194 206.788 127.332 206.362 127.583C205.936 127.846 205.622 128.197 205.422 128.636C205.396 128.686 205.371 128.774 205.346 128.874L205.334 128.448C205.334 127.445 205.534 126.63 205.948 126.003C206.362 125.388 206.951 125.075 207.704 125.075C208.218 125.075 208.632 125.213 208.958 125.476C209.284 125.752 209.497 126.116 209.597 126.567H210.651C210.538 125.84 210.224 125.25 209.71 124.811C209.196 124.372 208.544 124.147 207.754 124.147C207.052 124.147 206.462 124.335 205.961 124.699C205.459 125.062 205.07 125.576 204.807 126.253C204.544 126.931 204.418 127.733 204.418 128.649C204.418 129.225 204.469 129.777 204.594 130.279ZM209.221 128.686C209.572 129.062 209.76 129.539 209.76 130.128C209.76 130.73 209.572 131.207 209.209 131.583C208.832 131.959 208.356 132.147 207.754 132.147C207.152 132.147 206.663 131.972 206.299 131.596C205.923 131.232 205.748 130.755 205.748 130.153C205.748 129.551 205.936 129.062 206.312 128.686C206.688 128.31 207.177 128.122 207.792 128.122C208.394 128.122 208.87 128.31 209.221 128.686ZM218.792 129.175C218.429 128.812 217.99 128.573 217.476 128.473C217.977 128.373 218.366 128.147 218.667 127.796C218.955 127.445 219.106 127.006 219.106 126.467C219.106 126.015 218.981 125.601 218.742 125.25C218.504 124.899 218.165 124.636 217.714 124.435C217.263 124.247 216.736 124.147 216.134 124.147C215.244 124.147 214.529 124.372 214.002 124.824C213.463 125.275 213.187 125.902 213.187 126.692H214.24C214.24 126.203 214.429 125.815 214.78 125.526C215.131 125.238 215.595 125.087 216.172 125.087C216.711 125.087 217.15 125.225 217.501 125.476C217.852 125.739 218.028 126.09 218.028 126.529C218.028 126.993 217.852 127.37 217.513 127.645C217.162 127.934 216.673 128.072 216.034 128.072H215.344V128.987H216.096C216.774 128.987 217.313 129.125 217.689 129.388C218.065 129.664 218.253 130.028 218.253 130.492C218.253 130.994 218.053 131.382 217.664 131.683C217.275 131.984 216.786 132.135 216.197 132.135C215.545 132.135 215.03 131.972 214.629 131.646C214.228 131.32 214.027 130.868 214.027 130.291H212.949C212.949 131.157 213.237 131.834 213.814 132.335C214.391 132.837 215.156 133.075 216.134 133.075C216.761 133.075 217.325 132.975 217.814 132.762C218.291 132.561 218.667 132.26 218.93 131.884C219.194 131.508 219.332 131.069 219.332 130.567C219.332 130.003 219.144 129.539 218.792 129.175Z" fill="#616161"/>
<rect x="65.6062" y="98.6064" width="168.787" height="58.7872" rx="29.3936" stroke="#E3E3E3" stroke-width="0.1"/>
<rect x="135" y="143.344" width="30" height="30" rx="15" fill="#FFDE6A"/>
<g clip-path="url(#clip1_1353_64176)">
<path d="M150.002 150.703C150.962 150.703 151.781 151.042 152.459 151.719C153.136 152.396 153.474 153.215 153.474 154.176V155.564H154.169C154.55 155.564 154.878 155.7 155.15 155.972C155.422 156.244 155.557 156.571 155.557 156.953V163.898C155.557 164.28 155.422 164.607 155.15 164.879C154.878 165.151 154.55 165.287 154.169 165.287H145.835C145.453 165.287 145.126 165.151 144.855 164.879C144.582 164.607 144.446 164.28 144.446 163.898V156.953C144.446 156.571 144.582 156.244 144.855 155.972C145.126 155.7 145.453 155.564 145.835 155.564H146.53V154.176C146.53 153.215 146.868 152.396 147.546 151.719C148.222 151.042 149.041 150.703 150.002 150.703ZM150.002 152.092C149.423 152.092 148.931 152.295 148.526 152.7C148.121 153.105 147.919 153.597 147.919 154.176V155.564H152.085V154.176C152.085 153.597 151.883 153.105 151.478 152.7C151.072 152.295 150.581 152.092 150.002 152.092ZM145.835 163.898H154.169V156.953H145.835V163.898ZM150.002 159.037C149.62 159.037 149.293 159.172 149.021 159.444C148.749 159.716 148.613 160.044 148.613 160.426C148.613 160.807 148.749 161.135 149.021 161.407C149.293 161.679 149.62 161.814 150.002 161.814C150.384 161.814 150.711 161.679 150.983 161.407C151.255 161.135 151.391 160.807 151.391 160.426C151.391 160.044 151.255 159.716 150.983 159.444C150.711 159.172 150.384 159.037 150.002 159.037Z" fill="#1B1A1A"/>
</g>
<rect x="133.333" y="141.677" width="33.3333" height="33.3333" rx="16.6667" stroke="#E7E7E6" stroke-opacity="0.5" stroke-width="3.33333"/>
<defs>
<clipPath id="clip0_1353_64176">
<rect x="79.6562" y="112.656" width="30.6872" height="30.6872" rx="15.3436" fill="white"/>
</clipPath>
<clipPath id="clip1_1353_64176">
<rect width="16.6667" height="16.6667" fill="white" transform="translate(141.667 150.01)"/>
</clipPath>
</defs>
</svg>
