<svg width="300" height="272" viewBox="0 0 300 272" fill="none" xmlns="http://www.w3.org/2000/svg">
<g clip-path="url(#clip0_1353_64109)">
<rect width="300" height="272" rx="24" transform="matrix(1 0 0 -1 0 272)" fill="#E0E0E0"/>
<g clip-path="url(#clip1_1353_64109)">
<path d="M156.219 107.379C152.016 106.331 147.593 106.181 143.29 107.11C142.957 107.182 142.746 107.51 142.817 107.842C142.889 108.175 143.217 108.386 143.55 108.314C147.671 107.425 151.917 107.571 155.955 108.584C165.612 111.004 173.651 118.265 176.712 127.75C177.896 131.418 178.399 135.324 178.5 139.417C178.508 139.757 178.791 140.026 179.131 140.018C179.471 140.009 179.74 139.727 179.732 139.387C179.63 135.237 179.121 131.231 177.908 127.442C174.728 117.512 166.327 109.9 156.219 107.379Z" fill="#959595" fill-opacity="0.6"/>
<path d="M140.163 109.243C140.491 109.153 140.684 108.813 140.593 108.485C140.503 108.157 140.163 107.965 139.835 108.055C135.335 109.297 129.004 113.587 125.091 119.318C125.089 119.321 125.088 119.323 125.086 119.325C121.651 124.503 119.497 131.009 120.098 137.323C120.099 137.329 120.1 137.335 120.1 137.341C120.245 138.493 120.486 139.644 120.729 140.796C121.239 143.223 121.75 145.655 121.352 148.126C121.297 148.462 121.526 148.778 121.862 148.832C122.198 148.887 122.514 148.658 122.568 148.322C122.985 145.739 122.467 143.22 121.95 140.7C121.711 139.534 121.471 138.369 121.324 137.197C120.759 131.231 122.796 125.007 126.111 120.01C129.875 114.499 135.97 110.4 140.163 109.243Z" fill="#959595" fill-opacity="0.6"/>
<path d="M148.248 110.62C155.983 110.147 163.716 113.304 168.909 119.352C169.131 119.61 169.102 119.999 168.843 120.22C168.585 120.442 168.196 120.413 167.975 120.154C163.036 114.403 155.677 111.399 148.319 111.85C148.316 111.85 148.314 111.85 148.311 111.85C139.006 112.3 130.292 118.613 127.087 127.458C126.971 127.778 126.618 127.943 126.298 127.827C125.978 127.711 125.813 127.358 125.929 127.038C129.305 117.72 138.456 111.095 148.248 110.62Z" fill="#959595" fill-opacity="0.6"/>
<path d="M170.786 122.043C170.597 121.761 170.214 121.685 169.931 121.875C169.649 122.065 169.574 122.448 169.763 122.73C172.643 127.017 173.833 131.682 174.304 137.218C174.332 137.557 174.631 137.809 174.97 137.78C175.309 137.751 175.56 137.453 175.531 137.114C175.05 131.457 173.823 126.565 170.786 122.043Z" fill="#959595" fill-opacity="0.6"/>
<path d="M175.12 139.73C175.459 139.709 175.752 139.967 175.773 140.306C176.005 144.021 176.007 148.224 175.596 151.33C175.552 151.668 175.242 151.905 174.905 151.86C174.567 151.816 174.33 151.506 174.375 151.169C174.771 148.175 174.773 144.061 174.543 140.383C174.522 140.043 174.78 139.751 175.12 139.73Z" fill="#959595" fill-opacity="0.6"/>
<path d="M126.157 130.442C126.237 130.111 126.033 129.778 125.702 129.698C125.372 129.618 125.039 129.822 124.959 130.153C124.507 132.025 124.272 133.949 124.263 135.875C124.253 137.86 124.623 139.797 124.994 141.736C125.296 143.321 125.599 144.907 125.695 146.52C125.82 148.639 125.374 150.76 124.604 152.78C124.483 153.098 124.642 153.454 124.96 153.575C125.278 153.696 125.634 153.537 125.755 153.219C126.569 151.084 127.063 148.785 126.925 146.447C126.83 144.845 126.527 143.269 126.224 141.692C125.855 139.769 125.485 137.847 125.495 135.881C125.504 134.051 125.727 132.222 126.157 130.442Z" fill="#959595" fill-opacity="0.6"/>
<path d="M142.323 116.751C142.449 117.067 142.296 117.426 141.98 117.552C135.593 120.117 130.797 125.906 129.819 132.731C129.41 135.583 129.851 138.407 130.293 141.231C130.542 142.822 130.79 144.412 130.887 146.006C131.096 149.464 130.703 153.261 128.453 156.717C128.267 157.002 127.885 157.082 127.6 156.897C127.315 156.711 127.234 156.329 127.42 156.044C129.47 152.896 129.858 149.399 129.657 146.081C129.559 144.463 129.312 142.854 129.065 141.247C128.622 138.363 128.179 135.482 128.599 132.556C129.644 125.268 134.752 119.127 141.521 116.409C141.837 116.282 142.196 116.435 142.323 116.751Z" fill="#959595" fill-opacity="0.6"/>
<path d="M163.951 120.259C158.912 115.539 151.609 113.892 144.972 115.348C144.639 115.421 144.429 115.749 144.502 116.082C144.575 116.414 144.903 116.624 145.236 116.551C151.52 115.173 158.397 116.745 163.108 121.158C167.079 124.877 169.385 130.289 169.989 136.193C170.023 136.531 170.326 136.778 170.664 136.743C171.003 136.709 171.249 136.406 171.214 136.068C170.588 129.937 168.184 124.224 163.951 120.259Z" fill="#959595" fill-opacity="0.6"/>
<path d="M171.085 139.002C171.424 138.967 171.726 139.213 171.761 139.552C172.346 145.249 172.094 151.402 171.211 157.354C171.161 157.691 170.848 157.923 170.511 157.873C170.174 157.823 169.942 157.51 169.992 157.173C170.863 151.304 171.108 145.255 170.535 139.678C170.501 139.339 170.747 139.036 171.085 139.002Z" fill="#959595" fill-opacity="0.6"/>
<path d="M149.606 119.015C140.166 119.015 132.495 126.547 132.495 135.859C132.495 136.854 132.583 137.829 132.752 138.776C132.811 139.111 133.131 139.335 133.466 139.275C133.801 139.216 134.024 138.896 133.965 138.561C133.809 137.683 133.727 136.781 133.727 135.859C133.727 127.247 140.827 120.248 149.606 120.248C153.574 120.248 157.199 121.678 159.981 124.04C160.24 124.261 160.629 124.229 160.849 123.97C161.07 123.71 161.038 123.321 160.779 123.101C157.78 120.555 153.875 119.015 149.606 119.015Z" fill="#959595" fill-opacity="0.6"/>
<path d="M162.159 125.398C162.404 125.163 162.794 125.171 163.03 125.416C165.749 128.252 166.619 132.708 167.195 136.448C167.844 140.66 167.943 144.769 167.943 146.675C167.943 147.015 167.667 147.291 167.327 147.291C166.986 147.291 166.711 147.015 166.711 146.675C166.711 144.8 166.612 140.76 165.977 136.635C165.443 133.163 164.672 128.909 162.141 126.269C161.905 126.024 161.913 125.634 162.159 125.398Z" fill="#959595" fill-opacity="0.6"/>
<path d="M167.786 150.203C167.813 149.864 167.56 149.567 167.221 149.54C166.882 149.513 166.585 149.766 166.558 150.105C166.255 153.9 165.86 157.691 165.058 161.193C164.982 161.524 165.189 161.855 165.521 161.931C165.853 162.007 166.183 161.799 166.259 161.468C167.082 157.874 167.483 154.008 167.786 150.203Z" fill="#959595" fill-opacity="0.6"/>
<path d="M133.743 141.044C134.077 140.978 134.401 141.195 134.467 141.529C135.769 148.144 134.87 154.153 131.42 159.417C131.233 159.702 130.852 159.781 130.567 159.595C130.282 159.408 130.203 159.026 130.389 158.742C133.635 153.789 134.509 148.119 133.258 141.767C133.192 141.433 133.409 141.11 133.743 141.044Z" fill="#959595" fill-opacity="0.6"/>
<path d="M149.606 123.024C143.478 123.024 137.466 127.768 136.853 133.73C136.584 136.34 136.961 138.911 137.339 141.483C137.669 143.729 137.998 145.975 137.898 148.25C137.669 153.454 136.142 157.751 133.518 161.289C133.315 161.563 133.373 161.948 133.646 162.151C133.919 162.354 134.305 162.297 134.508 162.023C137.291 158.27 138.89 153.732 139.129 148.304C139.229 146.04 138.898 143.8 138.568 141.562C138.19 139.003 137.812 136.446 138.078 133.856C138.617 128.618 144.008 124.256 149.606 124.256C152.218 124.256 158.973 125.67 161.122 132.67C162.469 137.057 162.836 142.994 162.51 148.762C162.184 154.529 161.169 160.045 159.805 163.582C159.682 163.9 159.841 164.256 160.158 164.379C160.475 164.501 160.832 164.343 160.955 164.026C162.382 160.325 163.41 154.67 163.74 148.832C164.07 142.995 163.707 136.893 162.3 132.309C159.915 124.538 152.437 123.024 149.606 123.024Z" fill="#959595" fill-opacity="0.6"/>
<path d="M140.125 159.418C140.41 159.604 140.491 159.986 140.305 160.271C139.923 160.856 139.587 161.469 139.251 162.082C138.915 162.695 138.578 163.308 138.196 163.894C138.01 164.179 137.629 164.259 137.344 164.073C137.059 163.887 136.978 163.506 137.164 163.221C137.546 162.635 137.882 162.022 138.219 161.409C138.555 160.796 138.891 160.183 139.273 159.598C139.459 159.313 139.84 159.232 140.125 159.418Z" fill="#959595" fill-opacity="0.6"/>
<path d="M145.401 129.419C145.684 129.23 145.759 128.847 145.57 128.565C145.381 128.282 144.999 128.206 144.716 128.395C142.276 130.027 140.779 132.271 140.779 135.558C140.779 137.515 141.126 139.115 141.482 140.756C142.014 143.211 142.375 145.662 142.31 148.184C142.231 151.247 141.632 154.045 140.48 156.711C140.345 157.024 140.489 157.386 140.801 157.521C141.114 157.656 141.476 157.512 141.611 157.2C142.829 154.381 143.459 151.426 143.542 148.215C143.609 145.595 143.238 143.047 142.686 140.495C142.33 138.847 142.012 137.376 142.012 135.558C142.012 132.741 143.251 130.857 145.401 129.419Z" fill="#959595" fill-opacity="0.6"/>
<path d="M147.805 127.255C150.362 126.733 153.113 127.377 155.138 129.016C158.755 131.944 159.236 137.283 159.626 141.609L159.646 141.829C160.149 147.406 159.573 152.823 158.411 158.263C158.34 158.595 158.013 158.808 157.68 158.736C157.347 158.665 157.135 158.338 157.206 158.005C158.35 152.647 158.908 147.359 158.418 141.94C158.402 141.761 158.386 141.579 158.37 141.395L158.369 141.392C158.023 137.483 157.59 132.586 154.363 129.974C152.631 128.573 150.257 128.012 148.051 128.462C147.718 128.53 147.393 128.315 147.325 127.981C147.257 127.648 147.472 127.323 147.805 127.255Z" fill="#959595" fill-opacity="0.6"/>
<path d="M157.54 161.328C157.624 160.998 157.425 160.663 157.095 160.579C156.766 160.495 156.43 160.694 156.346 161.024C155.974 162.487 155.4 163.808 154.672 165.023C154.498 165.315 154.593 165.694 154.885 165.868C155.176 166.043 155.555 165.948 155.73 165.656C156.514 164.346 157.136 162.915 157.54 161.328Z" fill="#959595" fill-opacity="0.6"/>
<path d="M154.528 152.388C154.866 152.428 155.107 152.734 155.067 153.072C154.485 157.989 153.172 162.374 151.064 166.178C150.899 166.475 150.524 166.583 150.226 166.418C149.929 166.253 149.821 165.878 149.986 165.58C152.003 161.94 153.277 157.714 153.844 152.927C153.883 152.589 154.19 152.348 154.528 152.388Z" fill="#959595" fill-opacity="0.6"/>
<path d="M154.401 135.235C153.974 132.952 152.015 131.207 149.637 131.207C146.417 131.207 144.158 134.452 144.954 137.472C146.301 142.802 146.522 147.94 145.61 152.888L145.609 152.891C144.818 157.334 143.298 161.33 141.226 164.717C141.048 165.007 141.139 165.386 141.429 165.564C141.72 165.742 142.099 165.65 142.276 165.36C144.434 161.835 146.006 157.693 146.822 153.109C147.769 147.97 147.534 142.653 146.148 137.167L146.146 137.161C145.549 134.902 147.213 132.439 149.637 132.439C151.386 132.439 152.863 133.725 153.189 135.457C154.086 140.659 154.553 145.482 154.22 149.635C154.193 149.974 154.446 150.271 154.785 150.298C155.124 150.326 155.421 150.073 155.448 149.733C155.793 145.429 155.306 140.487 154.402 135.243C154.402 135.24 154.401 135.237 154.401 135.235Z" fill="#959595" fill-opacity="0.6"/>
<path d="M147.799 161.918C148.101 162.073 148.22 162.444 148.065 162.747L146.433 165.924C146.277 166.227 145.906 166.346 145.603 166.19C145.3 166.035 145.181 165.663 145.337 165.361L146.969 162.184C147.125 161.881 147.496 161.762 147.799 161.918Z" fill="#959595" fill-opacity="0.6"/>
<path d="M150.095 135.829C150.017 135.497 149.686 135.292 149.355 135.37C149.023 135.448 148.818 135.779 148.896 136.11C150.973 144.954 150.688 152.72 148.157 159.335C148.036 159.653 148.195 160.009 148.513 160.131C148.83 160.253 149.187 160.093 149.308 159.776C151.947 152.878 152.215 144.852 150.095 135.829Z" fill="#959595" fill-opacity="0.6"/>
</g>
<rect x="119.062" y="97.1248" width="61.8755" height="78.7505" rx="20.477" stroke="#D3D3D3" stroke-opacity="0.08" stroke-width="1.875"/>
<rect x="0.5" y="-0.5" width="137" height="137" rx="68.5" transform="matrix(1 0 0 -1 81 204)" stroke="white" stroke-opacity="0.5"/>
<rect x="-0.5" y="0.5" width="187" height="187" rx="93.5" transform="matrix(1 0 0 -1 57 230)" stroke="white" stroke-opacity="0.3"/>
<rect x="0.5" y="-0.5" width="237" height="237" rx="118.5" transform="matrix(1 0 0 -1 31 254)" stroke="white" stroke-opacity="0.2"/>
<rect x="0.5" y="-0.5" width="289" height="289" rx="144.5" transform="matrix(1 0 0 -1 5 280)" stroke="white" stroke-opacity="0.1"/>
<rect x="0.5" y="-0.5" width="341" height="341" rx="170.5" transform="matrix(1 0 0 -1 -21 306)" stroke="white" stroke-opacity="0.1"/>
</g>
<defs>
<clipPath id="clip0_1353_64109">
<rect width="300" height="272" rx="24" transform="matrix(1 0 0 -1 0 272)" fill="white"/>
</clipPath>
<clipPath id="clip1_1353_64109">
<rect width="60.0005" height="60.0005" fill="white" transform="translate(119.999 106.5)"/>
</clipPath>
</defs>
</svg>
