<svg width="300" height="272" viewBox="0 0 300 272" fill="none" xmlns="http://www.w3.org/2000/svg">
<rect x="57.5" y="171" width="32" height="32" rx="16" fill="#FFF9E3"/>
<rect x="59" y="172.5" width="29" height="29" rx="14.5" fill="white"/>
<g clip-path="url(#clip0_1353_64252)">
<path d="M70.9385 192.205C71.226 192.205 71.459 191.972 71.459 191.685C71.459 191.397 71.226 191.164 70.9385 191.164C70.651 191.164 70.418 191.397 70.418 191.685C70.418 191.972 70.651 192.205 70.9385 192.205Z" stroke="#212121" stroke-width="1.04106" stroke-linecap="round" stroke-linejoin="round"/>
<path d="M76.6641 192.205C76.9516 192.205 77.1846 191.972 77.1846 191.685C77.1846 191.397 76.9516 191.164 76.6641 191.164C76.3766 191.164 76.1436 191.397 76.1436 191.685C76.1436 191.972 76.3766 192.205 76.6641 192.205Z" stroke="#212121" stroke-width="1.04106" stroke-linecap="round" stroke-linejoin="round"/>
<path d="M66.7744 181.274H68.8565L70.2515 188.244C70.2991 188.484 70.4295 188.699 70.6198 188.852C70.8102 189.006 71.0483 189.087 71.2926 189.082H76.3521C76.5964 189.087 76.8346 189.006 77.0249 188.852C77.2152 188.699 77.3456 188.484 77.3932 188.244L78.226 183.877H69.3771" stroke="#212121" stroke-width="1.04106" stroke-linecap="round" stroke-linejoin="round"/>
</g>
<rect x="59" y="172.5" width="29" height="29" rx="14.5" stroke="#FFF4CE"/>
<rect x="101.5" y="167.5" width="141" height="39" rx="19.5" fill="#FFF9E3"/>
<rect x="103" y="169" width="138" height="36" rx="18" fill="white"/>
<path d="M118.634 183.969L120.685 187.238L122.736 183.969H124.054L121.359 188.193L124.119 192.5H122.789L120.685 189.166L118.582 192.5H117.252L120.011 188.193L117.316 183.969H118.634ZM130.763 190.191C130.763 190.711 130.642 191.152 130.4 191.516C130.162 191.875 129.837 192.148 129.427 192.336C129.021 192.523 128.562 192.617 128.05 192.617C127.539 192.617 127.078 192.523 126.667 192.336C126.257 192.148 125.933 191.875 125.695 191.516C125.456 191.152 125.337 190.711 125.337 190.191C125.337 189.852 125.402 189.541 125.531 189.26C125.664 188.975 125.849 188.727 126.087 188.516C126.33 188.305 126.615 188.143 126.943 188.029C127.275 187.912 127.64 187.854 128.039 187.854C128.562 187.854 129.029 187.955 129.439 188.158C129.849 188.357 130.171 188.633 130.406 188.984C130.644 189.336 130.763 189.738 130.763 190.191ZM129.673 190.168C129.673 189.852 129.605 189.572 129.468 189.33C129.331 189.084 129.14 188.893 128.894 188.756C128.648 188.619 128.363 188.551 128.039 188.551C127.706 188.551 127.419 188.619 127.177 188.756C126.939 188.893 126.753 189.084 126.621 189.33C126.488 189.572 126.421 189.852 126.421 190.168C126.421 190.496 126.486 190.777 126.615 191.012C126.747 191.242 126.935 191.42 127.177 191.545C127.423 191.666 127.714 191.727 128.05 191.727C128.386 191.727 128.675 191.666 128.917 191.545C129.16 191.42 129.345 191.242 129.474 191.012C129.607 190.777 129.673 190.496 129.673 190.168ZM130.564 186.189C130.564 186.604 130.455 186.977 130.236 187.309C130.017 187.641 129.718 187.902 129.339 188.094C128.96 188.285 128.531 188.381 128.05 188.381C127.562 188.381 127.126 188.285 126.744 188.094C126.365 187.902 126.068 187.641 125.853 187.309C125.638 186.977 125.531 186.604 125.531 186.189C125.531 185.693 125.638 185.271 125.853 184.924C126.072 184.576 126.371 184.311 126.749 184.127C127.128 183.943 127.56 183.852 128.044 183.852C128.533 183.852 128.966 183.943 129.345 184.127C129.724 184.311 130.021 184.576 130.236 184.924C130.455 185.271 130.564 185.693 130.564 186.189ZM129.48 186.207C129.48 185.922 129.419 185.67 129.298 185.451C129.177 185.232 129.009 185.061 128.794 184.936C128.58 184.807 128.33 184.742 128.044 184.742C127.759 184.742 127.509 184.803 127.294 184.924C127.083 185.041 126.917 185.209 126.796 185.428C126.679 185.646 126.621 185.906 126.621 186.207C126.621 186.5 126.679 186.756 126.796 186.975C126.917 187.193 127.085 187.363 127.3 187.484C127.515 187.605 127.765 187.666 128.05 187.666C128.335 187.666 128.583 187.605 128.794 187.484C129.009 187.363 129.177 187.193 129.298 186.975C129.419 186.756 129.48 186.5 129.48 186.207ZM138.96 188.252V191.375C138.855 191.531 138.687 191.707 138.456 191.902C138.226 192.094 137.907 192.262 137.501 192.406C137.099 192.547 136.579 192.617 135.943 192.617C135.423 192.617 134.945 192.527 134.507 192.348C134.073 192.164 133.696 191.898 133.376 191.551C133.06 191.199 132.814 190.773 132.638 190.273C132.466 189.77 132.38 189.199 132.38 188.562V187.9C132.38 187.264 132.454 186.695 132.603 186.195C132.755 185.695 132.978 185.271 133.271 184.924C133.564 184.572 133.923 184.307 134.349 184.127C134.775 183.943 135.263 183.852 135.814 183.852C136.466 183.852 137.011 183.965 137.448 184.191C137.89 184.414 138.234 184.723 138.48 185.117C138.73 185.512 138.89 185.961 138.96 186.465H137.829C137.779 186.156 137.677 185.875 137.525 185.621C137.376 185.367 137.163 185.164 136.886 185.012C136.609 184.855 136.251 184.777 135.814 184.777C135.419 184.777 135.077 184.85 134.788 184.994C134.499 185.139 134.261 185.346 134.073 185.615C133.886 185.885 133.745 186.211 133.652 186.594C133.562 186.977 133.517 187.408 133.517 187.889V188.562C133.517 189.055 133.573 189.494 133.687 189.881C133.804 190.268 133.97 190.598 134.185 190.871C134.4 191.141 134.655 191.346 134.952 191.486C135.253 191.627 135.585 191.697 135.948 191.697C136.351 191.697 136.677 191.664 136.927 191.598C137.177 191.527 137.372 191.445 137.513 191.352C137.654 191.254 137.761 191.162 137.835 191.076V189.166H135.861V188.252H138.96ZM144.116 188.51H141.954L141.942 187.602H143.905C144.229 187.602 144.513 187.547 144.755 187.438C144.997 187.328 145.185 187.172 145.317 186.969C145.454 186.762 145.522 186.516 145.522 186.23C145.522 185.918 145.462 185.664 145.341 185.469C145.224 185.27 145.042 185.125 144.796 185.035C144.554 184.941 144.245 184.895 143.87 184.895H142.206V192.5H141.075V183.969H143.87C144.308 183.969 144.698 184.014 145.042 184.104C145.386 184.189 145.677 184.326 145.915 184.514C146.157 184.697 146.341 184.932 146.466 185.217C146.591 185.502 146.653 185.844 146.653 186.242C146.653 186.594 146.563 186.912 146.384 187.197C146.204 187.479 145.954 187.709 145.634 187.889C145.317 188.068 144.946 188.184 144.52 188.234L144.116 188.51ZM144.063 192.5H141.509L142.147 191.58H144.063C144.423 191.58 144.727 191.518 144.977 191.393C145.231 191.268 145.425 191.092 145.558 190.865C145.69 190.635 145.757 190.363 145.757 190.051C145.757 189.734 145.7 189.461 145.587 189.23C145.474 189 145.296 188.822 145.054 188.697C144.811 188.572 144.499 188.51 144.116 188.51H142.505L142.517 187.602H144.72L144.96 187.93C145.37 187.965 145.718 188.082 146.003 188.281C146.288 188.477 146.505 188.727 146.653 189.031C146.806 189.336 146.882 189.672 146.882 190.039C146.882 190.57 146.765 191.02 146.53 191.387C146.3 191.75 145.974 192.027 145.552 192.219C145.13 192.406 144.634 192.5 144.063 192.5ZM149.589 191.592H149.7C150.325 191.592 150.833 191.504 151.223 191.328C151.614 191.152 151.915 190.916 152.126 190.619C152.337 190.322 152.481 189.988 152.559 189.617C152.637 189.242 152.676 188.857 152.676 188.463V187.156C152.676 186.77 152.632 186.426 152.542 186.125C152.456 185.824 152.335 185.572 152.178 185.369C152.026 185.166 151.852 185.012 151.657 184.906C151.462 184.801 151.255 184.748 151.036 184.748C150.786 184.748 150.561 184.799 150.362 184.9C150.167 184.998 150.001 185.137 149.864 185.316C149.731 185.496 149.63 185.707 149.559 185.949C149.489 186.191 149.454 186.455 149.454 186.74C149.454 186.994 149.485 187.24 149.548 187.479C149.61 187.717 149.706 187.932 149.835 188.123C149.964 188.314 150.124 188.467 150.315 188.58C150.51 188.689 150.739 188.744 151.001 188.744C151.243 188.744 151.469 188.697 151.68 188.604C151.895 188.506 152.085 188.375 152.249 188.211C152.417 188.043 152.55 187.854 152.647 187.643C152.749 187.432 152.807 187.211 152.823 186.98H153.339C153.339 187.305 153.274 187.625 153.145 187.941C153.02 188.254 152.844 188.539 152.618 188.797C152.391 189.055 152.126 189.262 151.821 189.418C151.516 189.57 151.184 189.646 150.825 189.646C150.403 189.646 150.038 189.564 149.729 189.4C149.421 189.236 149.167 189.018 148.967 188.744C148.772 188.471 148.626 188.166 148.528 187.83C148.434 187.49 148.387 187.146 148.387 186.799C148.387 186.393 148.444 186.012 148.557 185.656C148.671 185.301 148.839 184.988 149.061 184.719C149.284 184.445 149.559 184.232 149.887 184.08C150.219 183.928 150.602 183.852 151.036 183.852C151.524 183.852 151.94 183.949 152.284 184.145C152.628 184.34 152.907 184.602 153.122 184.93C153.341 185.258 153.501 185.627 153.602 186.037C153.704 186.447 153.755 186.869 153.755 187.303V187.695C153.755 188.137 153.725 188.586 153.667 189.043C153.612 189.496 153.505 189.93 153.344 190.344C153.188 190.758 152.96 191.129 152.659 191.457C152.358 191.781 151.966 192.039 151.481 192.23C151.001 192.418 150.407 192.512 149.7 192.512H149.589V191.592ZM157.083 187.701H157.856C158.235 187.701 158.547 187.639 158.793 187.514C159.043 187.385 159.229 187.211 159.35 186.992C159.475 186.77 159.538 186.52 159.538 186.242C159.538 185.914 159.483 185.639 159.374 185.416C159.264 185.193 159.1 185.025 158.881 184.912C158.663 184.799 158.385 184.742 158.049 184.742C157.745 184.742 157.475 184.803 157.241 184.924C157.01 185.041 156.829 185.209 156.696 185.428C156.567 185.646 156.502 185.904 156.502 186.201H155.418C155.418 185.768 155.528 185.373 155.747 185.018C155.965 184.662 156.272 184.379 156.666 184.168C157.065 183.957 157.526 183.852 158.049 183.852C158.565 183.852 159.016 183.943 159.403 184.127C159.79 184.307 160.09 184.576 160.305 184.936C160.52 185.291 160.627 185.734 160.627 186.266C160.627 186.48 160.577 186.711 160.475 186.957C160.377 187.199 160.223 187.426 160.012 187.637C159.805 187.848 159.536 188.021 159.204 188.158C158.872 188.291 158.473 188.357 158.008 188.357H157.083V187.701ZM157.083 188.592V187.941H158.008C158.551 187.941 159 188.006 159.356 188.135C159.711 188.264 159.991 188.436 160.194 188.65C160.401 188.865 160.545 189.102 160.627 189.359C160.713 189.613 160.756 189.867 160.756 190.121C160.756 190.52 160.688 190.873 160.551 191.182C160.418 191.49 160.229 191.752 159.983 191.967C159.741 192.182 159.456 192.344 159.127 192.453C158.799 192.562 158.442 192.617 158.055 192.617C157.684 192.617 157.334 192.564 157.006 192.459C156.682 192.354 156.395 192.201 156.145 192.002C155.895 191.799 155.7 191.551 155.559 191.258C155.418 190.961 155.348 190.623 155.348 190.244H156.432C156.432 190.541 156.497 190.801 156.625 191.023C156.758 191.246 156.946 191.42 157.188 191.545C157.434 191.666 157.723 191.727 158.055 191.727C158.387 191.727 158.672 191.67 158.911 191.557C159.153 191.439 159.338 191.264 159.467 191.029C159.6 190.795 159.666 190.5 159.666 190.145C159.666 189.789 159.592 189.498 159.444 189.271C159.295 189.041 159.084 188.871 158.811 188.762C158.541 188.648 158.223 188.592 157.856 188.592H157.083ZM167.846 187.555V188.855C167.846 189.555 167.783 190.145 167.658 190.625C167.533 191.105 167.354 191.492 167.119 191.785C166.885 192.078 166.602 192.291 166.27 192.424C165.942 192.553 165.571 192.617 165.156 192.617C164.828 192.617 164.526 192.576 164.248 192.494C163.971 192.412 163.721 192.281 163.498 192.102C163.28 191.918 163.092 191.68 162.936 191.387C162.78 191.094 162.66 190.738 162.578 190.32C162.496 189.902 162.455 189.414 162.455 188.855V187.555C162.455 186.855 162.518 186.27 162.643 185.797C162.772 185.324 162.953 184.945 163.188 184.66C163.422 184.371 163.703 184.164 164.031 184.039C164.364 183.914 164.735 183.852 165.145 183.852C165.477 183.852 165.781 183.893 166.059 183.975C166.34 184.053 166.59 184.18 166.809 184.355C167.028 184.527 167.213 184.758 167.365 185.047C167.522 185.332 167.641 185.682 167.723 186.096C167.805 186.51 167.846 186.996 167.846 187.555ZM166.756 189.031V187.373C166.756 186.99 166.733 186.654 166.686 186.365C166.643 186.072 166.578 185.822 166.492 185.615C166.406 185.408 166.297 185.24 166.164 185.111C166.035 184.982 165.885 184.889 165.713 184.83C165.545 184.768 165.356 184.736 165.145 184.736C164.887 184.736 164.658 184.785 164.459 184.883C164.26 184.977 164.092 185.127 163.955 185.334C163.822 185.541 163.721 185.812 163.651 186.148C163.58 186.484 163.545 186.893 163.545 187.373V189.031C163.545 189.414 163.567 189.752 163.61 190.045C163.656 190.338 163.725 190.592 163.815 190.807C163.905 191.018 164.014 191.191 164.143 191.328C164.272 191.465 164.42 191.566 164.588 191.633C164.76 191.695 164.949 191.727 165.156 191.727C165.422 191.727 165.655 191.676 165.854 191.574C166.053 191.473 166.219 191.314 166.352 191.1C166.489 190.881 166.59 190.602 166.656 190.262C166.723 189.918 166.756 189.508 166.756 189.031ZM174.309 190.344C174.309 190.145 174.277 189.969 174.215 189.816C174.156 189.66 174.051 189.52 173.898 189.395C173.75 189.27 173.543 189.15 173.277 189.037C173.016 188.924 172.684 188.809 172.281 188.691C171.859 188.566 171.479 188.428 171.139 188.275C170.799 188.119 170.508 187.941 170.266 187.742C170.023 187.543 169.838 187.314 169.709 187.057C169.58 186.799 169.516 186.504 169.516 186.172C169.516 185.84 169.584 185.533 169.721 185.252C169.857 184.971 170.053 184.727 170.307 184.52C170.564 184.309 170.871 184.145 171.227 184.027C171.582 183.91 171.979 183.852 172.416 183.852C173.057 183.852 173.6 183.975 174.045 184.221C174.494 184.463 174.836 184.781 175.07 185.176C175.305 185.566 175.422 185.984 175.422 186.43H174.297C174.297 186.109 174.229 185.826 174.092 185.58C173.955 185.33 173.748 185.135 173.471 184.994C173.193 184.85 172.842 184.777 172.416 184.777C172.014 184.777 171.682 184.838 171.42 184.959C171.158 185.08 170.963 185.244 170.834 185.451C170.709 185.658 170.646 185.895 170.646 186.16C170.646 186.34 170.684 186.504 170.758 186.652C170.836 186.797 170.955 186.932 171.115 187.057C171.279 187.182 171.486 187.297 171.736 187.402C171.99 187.508 172.293 187.609 172.645 187.707C173.129 187.844 173.547 187.996 173.898 188.164C174.25 188.332 174.539 188.521 174.766 188.732C174.996 188.939 175.166 189.176 175.275 189.441C175.389 189.703 175.445 190 175.445 190.332C175.445 190.68 175.375 190.994 175.234 191.275C175.094 191.557 174.893 191.797 174.631 191.996C174.369 192.195 174.055 192.35 173.688 192.459C173.324 192.564 172.918 192.617 172.469 192.617C172.074 192.617 171.686 192.562 171.303 192.453C170.924 192.344 170.578 192.18 170.266 191.961C169.957 191.742 169.709 191.473 169.521 191.152C169.338 190.828 169.246 190.453 169.246 190.027H170.371C170.371 190.32 170.428 190.572 170.541 190.783C170.654 190.99 170.809 191.162 171.004 191.299C171.203 191.436 171.428 191.537 171.678 191.604C171.932 191.666 172.195 191.697 172.469 191.697C172.863 191.697 173.197 191.643 173.471 191.533C173.744 191.424 173.951 191.268 174.092 191.064C174.236 190.861 174.309 190.621 174.309 190.344ZM179.881 191.205L182.394 183.969H183.619L180.461 192.5H179.588L179.881 191.205ZM177.531 183.969L180.021 191.205L180.332 192.5H179.459L176.306 183.969H177.531ZM190.316 191.609V192.5H184.732V191.721L187.527 188.609C187.871 188.227 188.136 187.902 188.324 187.637C188.515 187.367 188.648 187.127 188.722 186.916C188.8 186.701 188.839 186.482 188.839 186.26C188.839 185.979 188.781 185.725 188.664 185.498C188.55 185.268 188.382 185.084 188.16 184.947C187.937 184.811 187.668 184.742 187.351 184.742C186.972 184.742 186.656 184.816 186.402 184.965C186.152 185.109 185.964 185.312 185.839 185.574C185.714 185.836 185.652 186.137 185.652 186.477H184.568C184.568 185.996 184.673 185.557 184.884 185.158C185.095 184.76 185.408 184.443 185.822 184.209C186.236 183.971 186.746 183.852 187.351 183.852C187.89 183.852 188.351 183.947 188.734 184.139C189.117 184.326 189.41 184.592 189.613 184.936C189.82 185.275 189.923 185.674 189.923 186.131C189.923 186.381 189.88 186.635 189.794 186.893C189.712 187.146 189.597 187.4 189.449 187.654C189.304 187.908 189.134 188.158 188.939 188.404C188.748 188.65 188.543 188.893 188.324 189.131L186.039 191.609H190.316ZM195.038 188.51H192.876L192.865 187.602H194.827C195.152 187.602 195.435 187.547 195.677 187.438C195.919 187.328 196.107 187.172 196.24 186.969C196.376 186.762 196.445 186.516 196.445 186.23C196.445 185.918 196.384 185.664 196.263 185.469C196.146 185.27 195.964 185.125 195.718 185.035C195.476 184.941 195.167 184.895 194.792 184.895H193.128V192.5H191.997V183.969H194.792C195.23 183.969 195.62 184.014 195.964 184.104C196.308 184.189 196.599 184.326 196.837 184.514C197.079 184.697 197.263 184.932 197.388 185.217C197.513 185.502 197.575 185.844 197.575 186.242C197.575 186.594 197.486 186.912 197.306 187.197C197.126 187.479 196.876 187.709 196.556 187.889C196.24 188.068 195.868 188.184 195.443 188.234L195.038 188.51ZM194.986 192.5H192.431L193.07 191.58H194.986C195.345 191.58 195.65 191.518 195.9 191.393C196.154 191.268 196.347 191.092 196.48 190.865C196.613 190.635 196.679 190.363 196.679 190.051C196.679 189.734 196.622 189.461 196.509 189.23C196.396 189 196.218 188.822 195.976 188.697C195.734 188.572 195.421 188.51 195.038 188.51H193.427L193.439 187.602H195.642L195.882 187.93C196.292 187.965 196.64 188.082 196.925 188.281C197.21 188.477 197.427 188.727 197.575 189.031C197.728 189.336 197.804 189.672 197.804 190.039C197.804 190.57 197.687 191.02 197.452 191.387C197.222 191.75 196.896 192.027 196.474 192.219C196.052 192.406 195.556 192.5 194.986 192.5ZM201.015 187.701H201.788C202.167 187.701 202.48 187.639 202.726 187.514C202.976 187.385 203.161 187.211 203.282 186.992C203.407 186.77 203.47 186.52 203.47 186.242C203.47 185.914 203.415 185.639 203.306 185.416C203.196 185.193 203.032 185.025 202.814 184.912C202.595 184.799 202.317 184.742 201.981 184.742C201.677 184.742 201.407 184.803 201.173 184.924C200.942 185.041 200.761 185.209 200.628 185.428C200.499 185.646 200.435 185.904 200.435 186.201H199.351C199.351 185.768 199.46 185.373 199.679 185.018C199.897 184.662 200.204 184.379 200.599 184.168C200.997 183.957 201.458 183.852 201.981 183.852C202.497 183.852 202.948 183.943 203.335 184.127C203.722 184.307 204.022 184.576 204.237 184.936C204.452 185.291 204.56 185.734 204.56 186.266C204.56 186.48 204.509 186.711 204.407 186.957C204.31 187.199 204.155 187.426 203.944 187.637C203.737 187.848 203.468 188.021 203.136 188.158C202.804 188.291 202.405 188.357 201.94 188.357H201.015V187.701ZM201.015 188.592V187.941H201.94C202.483 187.941 202.933 188.006 203.288 188.135C203.644 188.264 203.923 188.436 204.126 188.65C204.333 188.865 204.478 189.102 204.56 189.359C204.646 189.613 204.689 189.867 204.689 190.121C204.689 190.52 204.62 190.873 204.483 191.182C204.351 191.49 204.161 191.752 203.915 191.967C203.673 192.182 203.388 192.344 203.06 192.453C202.731 192.562 202.374 192.617 201.987 192.617C201.616 192.617 201.267 192.564 200.939 192.459C200.614 192.354 200.327 192.201 200.077 192.002C199.827 191.799 199.632 191.551 199.491 191.258C199.351 190.961 199.28 190.623 199.28 190.244H200.364C200.364 190.541 200.429 190.801 200.558 191.023C200.69 191.246 200.878 191.42 201.12 191.545C201.366 191.666 201.655 191.727 201.987 191.727C202.319 191.727 202.605 191.67 202.843 191.557C203.085 191.439 203.271 191.264 203.399 191.029C203.532 190.795 203.599 190.5 203.599 190.145C203.599 189.789 203.524 189.498 203.376 189.271C203.228 189.041 203.017 188.871 202.743 188.762C202.474 188.648 202.155 188.592 201.788 188.592H201.015ZM212.188 189.629V190.52H206.024V189.881L209.845 183.969H210.729L209.78 185.68L207.255 189.629H212.188ZM210.999 183.969V192.5H209.915V183.969H210.999ZM213.694 183.969H216.518C217.159 183.969 217.7 184.066 218.141 184.262C218.586 184.457 218.924 184.746 219.155 185.129C219.389 185.508 219.506 185.975 219.506 186.529C219.506 186.92 219.426 187.277 219.266 187.602C219.11 187.922 218.883 188.195 218.586 188.422C218.294 188.645 217.942 188.811 217.532 188.92L217.215 189.043H214.561L214.549 188.123H216.553C216.96 188.123 217.297 188.053 217.567 187.912C217.836 187.768 218.04 187.574 218.176 187.332C218.313 187.09 218.381 186.822 218.381 186.529C218.381 186.201 218.317 185.914 218.188 185.668C218.059 185.422 217.856 185.232 217.579 185.1C217.305 184.963 216.952 184.895 216.518 184.895H214.825V192.5H213.694V183.969ZM218.68 192.5L216.606 188.633L217.784 188.627L219.887 192.43V192.5H218.68ZM222.125 191.592H222.237C222.862 191.592 223.369 191.504 223.76 191.328C224.151 191.152 224.451 190.916 224.662 190.619C224.873 190.322 225.018 189.988 225.096 189.617C225.174 189.242 225.213 188.857 225.213 188.463V187.156C225.213 186.77 225.168 186.426 225.078 186.125C224.993 185.824 224.871 185.572 224.715 185.369C224.563 185.166 224.389 185.012 224.194 184.906C223.998 184.801 223.791 184.748 223.573 184.748C223.323 184.748 223.098 184.799 222.899 184.9C222.703 184.998 222.537 185.137 222.401 185.316C222.268 185.496 222.166 185.707 222.096 185.949C222.026 186.191 221.991 186.455 221.991 186.74C221.991 186.994 222.022 187.24 222.084 187.479C222.147 187.717 222.243 187.932 222.371 188.123C222.5 188.314 222.66 188.467 222.852 188.58C223.047 188.689 223.276 188.744 223.537 188.744C223.78 188.744 224.006 188.697 224.217 188.604C224.432 188.506 224.621 188.375 224.785 188.211C224.953 188.043 225.086 187.854 225.184 187.643C225.285 187.432 225.344 187.211 225.36 186.98H225.875C225.875 187.305 225.811 187.625 225.682 187.941C225.557 188.254 225.381 188.539 225.155 188.797C224.928 189.055 224.662 189.262 224.358 189.418C224.053 189.57 223.721 189.646 223.362 189.646C222.94 189.646 222.575 189.564 222.266 189.4C221.957 189.236 221.703 189.018 221.504 188.744C221.309 188.471 221.162 188.166 221.065 187.83C220.971 187.49 220.924 187.146 220.924 186.799C220.924 186.393 220.981 186.012 221.094 185.656C221.207 185.301 221.375 184.988 221.598 184.719C221.821 184.445 222.096 184.232 222.424 184.08C222.756 183.928 223.139 183.852 223.573 183.852C224.061 183.852 224.477 183.949 224.821 184.145C225.164 184.34 225.444 184.602 225.659 184.93C225.877 185.258 226.037 185.627 226.139 186.037C226.241 186.447 226.291 186.869 226.291 187.303V187.695C226.291 188.137 226.262 188.586 226.203 189.043C226.149 189.496 226.041 189.93 225.881 190.344C225.725 190.758 225.496 191.129 225.196 191.457C224.895 191.781 224.502 192.039 224.018 192.23C223.537 192.418 222.944 192.512 222.237 192.512H222.125V191.592Z" fill="#1B1A1A"/>
<rect x="103" y="169" width="138" height="36" rx="18" stroke="#FFF4CE"/>
<rect x="58" y="120" width="32" height="32" rx="16" fill="#FFF9E3"/>
<rect x="59" y="121" width="30" height="30" rx="15" fill="#FFDE6A"/>
<g clip-path="url(#clip1_1353_64252)">
<path d="M78.8753 131.667H69.1253C68.527 131.667 68.042 132.152 68.042 132.75V139.25C68.042 139.849 68.527 140.334 69.1253 140.334H78.8753C79.4736 140.334 79.9587 139.849 79.9587 139.25V132.75C79.9587 132.152 79.4736 131.667 78.8753 131.667Z" stroke="black" stroke-width="1.08333" stroke-linecap="round" stroke-linejoin="round"/>
<path d="M68.042 134.917H79.9587" stroke="black" stroke-width="1.08333" stroke-linecap="round" stroke-linejoin="round"/>
</g>
<rect x="59.5" y="121.5" width="29" height="29" rx="14.5" stroke="white" stroke-opacity="0.5"/>
<rect x="102" y="116.5" width="140" height="39" rx="19.5" fill="#FFF9E3"/>
<rect x="103" y="117.5" width="138" height="37" rx="18.5" fill="#FFDE6A"/>
<path d="M123.738 136.637V137.557H119.121V136.637H123.738ZM119.297 132.969V141.5H118.166V132.969H119.297ZM124.722 132.969V141.5H123.597V132.969H124.722ZM126.972 132.969H129.796C130.437 132.969 130.978 133.066 131.419 133.262C131.865 133.457 132.203 133.746 132.433 134.129C132.667 134.508 132.785 134.975 132.785 135.529C132.785 135.92 132.705 136.277 132.544 136.602C132.388 136.922 132.162 137.195 131.865 137.422C131.572 137.645 131.22 137.811 130.81 137.92L130.494 138.043H127.839L127.828 137.123H129.831C130.238 137.123 130.576 137.053 130.845 136.912C131.115 136.768 131.318 136.574 131.455 136.332C131.591 136.09 131.66 135.822 131.66 135.529C131.66 135.201 131.595 134.914 131.466 134.668C131.337 134.422 131.134 134.232 130.857 134.1C130.583 133.963 130.23 133.895 129.796 133.895H128.103V141.5H126.972V132.969ZM131.958 141.5L129.884 137.633L131.062 137.627L133.165 141.43V141.5H131.958ZM140.091 138.629V139.52H133.927V138.881L137.747 132.969H138.632L137.683 134.68L135.157 138.629H140.091ZM138.902 132.969V141.5H137.818V132.969H138.902ZM146.829 132.969V133.578L143.296 141.5H142.153L145.681 133.859H141.063V132.969H146.829ZM154.007 140.58V141.5H149.489V140.58H154.007ZM149.717 132.969V141.5H148.587V132.969H149.717ZM153.409 136.637V137.557H149.489V136.637H153.409ZM153.948 132.969V133.895H149.489V132.969H153.948ZM156.948 136.701H157.721C158.1 136.701 158.413 136.639 158.659 136.514C158.909 136.385 159.094 136.211 159.215 135.992C159.34 135.77 159.403 135.52 159.403 135.242C159.403 134.914 159.348 134.639 159.239 134.416C159.129 134.193 158.965 134.025 158.747 133.912C158.528 133.799 158.25 133.742 157.915 133.742C157.61 133.742 157.34 133.803 157.106 133.924C156.875 134.041 156.694 134.209 156.561 134.428C156.432 134.646 156.368 134.904 156.368 135.201H155.284C155.284 134.768 155.393 134.373 155.612 134.018C155.831 133.662 156.137 133.379 156.532 133.168C156.93 132.957 157.391 132.852 157.915 132.852C158.43 132.852 158.881 132.943 159.268 133.127C159.655 133.307 159.956 133.576 160.17 133.936C160.385 134.291 160.493 134.734 160.493 135.266C160.493 135.48 160.442 135.711 160.34 135.957C160.243 136.199 160.088 136.426 159.877 136.637C159.67 136.848 159.401 137.021 159.069 137.158C158.737 137.291 158.338 137.357 157.874 137.357H156.948V136.701ZM156.948 137.592V136.941H157.874C158.416 136.941 158.866 137.006 159.221 137.135C159.577 137.264 159.856 137.436 160.059 137.65C160.266 137.865 160.411 138.102 160.493 138.359C160.579 138.613 160.622 138.867 160.622 139.121C160.622 139.52 160.553 139.873 160.416 140.182C160.284 140.49 160.094 140.752 159.848 140.967C159.606 141.182 159.321 141.344 158.993 141.453C158.665 141.562 158.307 141.617 157.92 141.617C157.549 141.617 157.2 141.564 156.872 141.459C156.547 141.354 156.26 141.201 156.01 141.002C155.76 140.799 155.565 140.551 155.424 140.258C155.284 139.961 155.213 139.623 155.213 139.244H156.297C156.297 139.541 156.362 139.801 156.491 140.023C156.624 140.246 156.811 140.42 157.053 140.545C157.299 140.666 157.588 140.727 157.92 140.727C158.252 140.727 158.538 140.67 158.776 140.557C159.018 140.439 159.204 140.264 159.333 140.029C159.465 139.795 159.532 139.5 159.532 139.145C159.532 138.789 159.458 138.498 159.309 138.271C159.161 138.041 158.95 137.871 158.676 137.762C158.407 137.648 158.088 137.592 157.721 137.592H156.948ZM165.678 137.51H163.516L163.504 136.602H165.467C165.791 136.602 166.074 136.547 166.317 136.438C166.559 136.328 166.746 136.172 166.879 135.969C167.016 135.762 167.084 135.516 167.084 135.23C167.084 134.918 167.024 134.664 166.903 134.469C166.785 134.27 166.604 134.125 166.358 134.035C166.115 133.941 165.807 133.895 165.432 133.895H163.768V141.5H162.637V132.969H165.432C165.869 132.969 166.26 133.014 166.604 133.104C166.947 133.189 167.239 133.326 167.477 133.514C167.719 133.697 167.903 133.932 168.028 134.217C168.153 134.502 168.215 134.844 168.215 135.242C168.215 135.594 168.125 135.912 167.946 136.197C167.766 136.479 167.516 136.709 167.196 136.889C166.879 137.068 166.508 137.184 166.082 137.234L165.678 137.51ZM165.625 141.5H163.071L163.709 140.58H165.625C165.985 140.58 166.289 140.518 166.539 140.393C166.793 140.268 166.987 140.092 167.119 139.865C167.252 139.635 167.319 139.363 167.319 139.051C167.319 138.734 167.262 138.461 167.149 138.23C167.035 138 166.858 137.822 166.615 137.697C166.373 137.572 166.061 137.51 165.678 137.51H164.067L164.078 136.602H166.281L166.522 136.93C166.932 136.965 167.28 137.082 167.565 137.281C167.85 137.477 168.067 137.727 168.215 138.031C168.367 138.336 168.444 138.672 168.444 139.039C168.444 139.57 168.326 140.02 168.092 140.387C167.862 140.75 167.535 141.027 167.114 141.219C166.692 141.406 166.196 141.5 165.625 141.5ZM173.342 132.969V141.5H172.229V132.969H173.342ZM176.084 132.969V133.895H169.492V132.969H176.084ZM182.687 139.191C182.687 139.711 182.566 140.152 182.324 140.516C182.086 140.875 181.761 141.148 181.351 141.336C180.945 141.523 180.486 141.617 179.974 141.617C179.463 141.617 179.002 141.523 178.592 141.336C178.181 141.148 177.857 140.875 177.619 140.516C177.381 140.152 177.261 139.711 177.261 139.191C177.261 138.852 177.326 138.541 177.455 138.26C177.588 137.975 177.773 137.727 178.011 137.516C178.254 137.305 178.539 137.143 178.867 137.029C179.199 136.912 179.564 136.854 179.963 136.854C180.486 136.854 180.953 136.955 181.363 137.158C181.773 137.357 182.095 137.633 182.33 137.984C182.568 138.336 182.687 138.738 182.687 139.191ZM181.597 139.168C181.597 138.852 181.529 138.572 181.392 138.33C181.256 138.084 181.064 137.893 180.818 137.756C180.572 137.619 180.287 137.551 179.963 137.551C179.631 137.551 179.344 137.619 179.101 137.756C178.863 137.893 178.677 138.084 178.545 138.33C178.412 138.572 178.345 138.852 178.345 139.168C178.345 139.496 178.41 139.777 178.539 140.012C178.672 140.242 178.859 140.42 179.101 140.545C179.347 140.666 179.638 140.727 179.974 140.727C180.31 140.727 180.599 140.666 180.842 140.545C181.084 140.42 181.269 140.242 181.398 140.012C181.531 139.777 181.597 139.496 181.597 139.168ZM182.488 135.189C182.488 135.604 182.379 135.977 182.16 136.309C181.941 136.641 181.642 136.902 181.263 137.094C180.885 137.285 180.455 137.381 179.974 137.381C179.486 137.381 179.051 137.285 178.668 137.094C178.289 136.902 177.992 136.641 177.777 136.309C177.562 135.977 177.455 135.604 177.455 135.189C177.455 134.693 177.562 134.271 177.777 133.924C177.996 133.576 178.295 133.311 178.674 133.127C179.052 132.943 179.484 132.852 179.969 132.852C180.457 132.852 180.89 132.943 181.269 133.127C181.648 133.311 181.945 133.576 182.16 133.924C182.379 134.271 182.488 134.693 182.488 135.189ZM181.404 135.207C181.404 134.922 181.344 134.67 181.222 134.451C181.101 134.232 180.933 134.061 180.719 133.936C180.504 133.807 180.254 133.742 179.969 133.742C179.683 133.742 179.433 133.803 179.219 133.924C179.008 134.041 178.842 134.209 178.72 134.428C178.603 134.646 178.545 134.906 178.545 135.207C178.545 135.5 178.603 135.756 178.72 135.975C178.842 136.193 179.01 136.363 179.224 136.484C179.439 136.605 179.689 136.666 179.974 136.666C180.26 136.666 180.508 136.605 180.719 136.484C180.933 136.363 181.101 136.193 181.222 135.975C181.344 135.756 181.404 135.5 181.404 135.207ZM185.669 137.439L184.802 137.217L185.23 132.969H189.607V133.971H186.15L185.892 136.291C186.048 136.201 186.246 136.117 186.484 136.039C186.726 135.961 187.003 135.922 187.316 135.922C187.71 135.922 188.064 135.99 188.376 136.127C188.689 136.26 188.955 136.451 189.173 136.701C189.396 136.951 189.566 137.252 189.683 137.604C189.8 137.955 189.859 138.348 189.859 138.781C189.859 139.191 189.802 139.568 189.689 139.912C189.58 140.256 189.414 140.557 189.191 140.814C188.968 141.068 188.687 141.266 188.347 141.406C188.011 141.547 187.615 141.617 187.158 141.617C186.814 141.617 186.488 141.57 186.179 141.477C185.875 141.379 185.601 141.232 185.359 141.037C185.121 140.838 184.925 140.592 184.773 140.299C184.625 140.002 184.531 139.654 184.492 139.256H185.523C185.57 139.576 185.664 139.846 185.804 140.064C185.945 140.283 186.128 140.449 186.355 140.562C186.585 140.672 186.853 140.727 187.158 140.727C187.416 140.727 187.644 140.682 187.843 140.592C188.043 140.502 188.21 140.373 188.347 140.205C188.484 140.037 188.587 139.834 188.658 139.596C188.732 139.357 188.769 139.09 188.769 138.793C188.769 138.523 188.732 138.273 188.658 138.043C188.584 137.812 188.472 137.611 188.324 137.439C188.179 137.268 188.001 137.135 187.791 137.041C187.58 136.943 187.337 136.895 187.064 136.895C186.701 136.895 186.425 136.943 186.238 137.041C186.054 137.139 185.865 137.271 185.669 137.439ZM194.728 133.725L191.904 141.5H190.749L194.001 132.969H194.745L194.728 133.725ZM197.095 141.5L194.265 133.725L194.247 132.969H194.991L198.255 141.5H197.095ZM196.949 138.342V139.268H192.156V138.342H196.949ZM202.919 132.922V141.5H201.835V134.275L199.649 135.072V134.094L202.749 132.922H202.919ZM210.507 132.957H210.6V133.877H210.507C209.932 133.877 209.452 133.971 209.065 134.158C208.679 134.342 208.372 134.59 208.145 134.902C207.919 135.211 207.755 135.559 207.653 135.945C207.555 136.332 207.507 136.725 207.507 137.123V138.377C207.507 138.756 207.552 139.092 207.641 139.385C207.731 139.674 207.854 139.918 208.011 140.117C208.167 140.316 208.343 140.467 208.538 140.568C208.737 140.67 208.944 140.721 209.159 140.721C209.409 140.721 209.632 140.674 209.827 140.58C210.022 140.482 210.186 140.348 210.319 140.176C210.456 140 210.559 139.793 210.63 139.555C210.7 139.316 210.735 139.055 210.735 138.77C210.735 138.516 210.704 138.271 210.641 138.037C210.579 137.799 210.483 137.588 210.354 137.404C210.225 137.217 210.063 137.07 209.868 136.965C209.677 136.855 209.448 136.801 209.182 136.801C208.882 136.801 208.6 136.875 208.339 137.023C208.081 137.168 207.868 137.359 207.7 137.598C207.536 137.832 207.442 138.088 207.419 138.365L206.845 138.359C206.899 137.922 207.001 137.549 207.149 137.24C207.302 136.928 207.489 136.674 207.712 136.479C207.938 136.279 208.19 136.135 208.468 136.045C208.749 135.951 209.046 135.904 209.358 135.904C209.784 135.904 210.151 135.984 210.46 136.145C210.768 136.305 211.022 136.52 211.221 136.789C211.421 137.055 211.567 137.355 211.661 137.691C211.759 138.023 211.807 138.365 211.807 138.717C211.807 139.119 211.751 139.496 211.637 139.848C211.524 140.199 211.354 140.508 211.128 140.773C210.905 141.039 210.63 141.246 210.302 141.395C209.973 141.543 209.593 141.617 209.159 141.617C208.698 141.617 208.296 141.523 207.952 141.336C207.608 141.145 207.323 140.891 207.096 140.574C206.87 140.258 206.7 139.906 206.587 139.52C206.473 139.133 206.417 138.74 206.417 138.342V137.832C206.417 137.23 206.477 136.641 206.598 136.062C206.72 135.484 206.929 134.961 207.225 134.492C207.526 134.023 207.942 133.65 208.473 133.373C209.005 133.096 209.682 132.957 210.507 132.957ZM214.01 132.969L216.225 137.252L218.446 132.969H219.729L216.788 138.312V141.5H215.657V138.312L212.715 132.969H214.01ZM226.373 140.609V141.5H220.789V140.721L223.584 137.609C223.928 137.227 224.194 136.902 224.381 136.637C224.573 136.367 224.705 136.127 224.78 135.916C224.858 135.701 224.897 135.482 224.897 135.26C224.897 134.979 224.838 134.725 224.721 134.498C224.608 134.268 224.44 134.084 224.217 133.947C223.994 133.811 223.725 133.742 223.409 133.742C223.03 133.742 222.713 133.816 222.459 133.965C222.209 134.109 222.022 134.312 221.897 134.574C221.772 134.836 221.709 135.137 221.709 135.477H220.625C220.625 134.996 220.731 134.557 220.942 134.158C221.153 133.76 221.465 133.443 221.879 133.209C222.293 132.971 222.803 132.852 223.409 132.852C223.948 132.852 224.409 132.947 224.791 133.139C225.174 133.326 225.467 133.592 225.67 133.936C225.877 134.275 225.981 134.674 225.981 135.131C225.981 135.381 225.938 135.635 225.852 135.893C225.77 136.146 225.655 136.4 225.506 136.654C225.362 136.908 225.192 137.158 224.996 137.404C224.805 137.65 224.6 137.893 224.381 138.131L222.096 140.609H226.373Z" fill="#1B1A1A"/>
<rect x="103.5" y="118" width="137" height="36" rx="18" stroke="white" stroke-opacity="0.5"/>
<rect x="57.5" y="69" width="32" height="32" rx="16" fill="#FFF9E3"/>
<rect x="58.5" y="70" width="30" height="30" rx="15" fill="#DBDBDB"/>
<path d="M80.215 83.1999C80.4068 83.1999 80.5627 83.0442 80.5627 82.8522V80.7662C80.5627 80.6515 80.4866 80.5051 80.3525 80.4474C80.3518 80.4471 80.351 80.4464 80.3503 80.4459H80.3496L73.7446 77.6648C73.6582 77.6287 73.561 77.6287 73.4749 77.6648L66.8699 80.4459H66.8696C66.8689 80.4462 66.8682 80.4469 66.8672 80.4474C66.7312 80.5063 66.6572 80.6498 66.6572 80.7662V82.8522C66.6572 83.044 66.8129 83.1999 67.005 83.1999H67.7002V89.4573H67.005C66.8132 89.4573 66.6572 89.6129 66.6572 89.805V91.1954C66.6572 91.3872 66.8129 91.5431 67.005 91.5431H80.215C80.4068 91.5431 80.5627 91.3875 80.5627 91.1954V89.805C80.5627 89.6132 80.407 89.4573 80.215 89.4573H79.5198L79.5195 83.1999H80.215ZM73.61 78.3625L78.4935 80.4188H68.7262L73.61 78.3625ZM67.3526 81.114H79.8674V82.5044H67.3526V81.114ZM75.0005 89.4571V83.1998H76.7387V89.4571H75.0005ZM70.4815 89.4571V83.1998H72.2196V89.4571H70.4815ZM72.9148 83.1998H74.3052V89.4571H72.9148V83.1998ZM68.3955 83.1998H69.786V89.4571H68.3955V83.1998ZM79.8674 90.8477H67.3526V90.1525H79.8674V90.8477ZM78.8245 89.457H77.434V83.1996H78.8245V89.457Z" fill="#1B1A1A" stroke="#1B1A1A" stroke-width="0.2"/>
<rect x="59" y="70.5" width="29" height="29" rx="14.5" stroke="white" stroke-opacity="0.5"/>
<rect x="101.5" y="65.5" width="141" height="39" rx="19.5" fill="#FFF9E3"/>
<rect x="102.5" y="66.5" width="139" height="37" rx="18.5" fill="#DBDBDB"/>
<path d="M123.48 89.5801V90.5H117.703V89.5801H123.48ZM123.293 82.7891L117.972 90.5H117.275V89.6562L122.59 81.9688H123.293V82.7891ZM122.812 81.9688V82.8945H117.351V81.9688H122.812ZM128.472 81.9219V90.5H127.388V83.2754L125.203 84.0723V83.0938L128.302 81.9219H128.472ZM137.489 89.6094V90.5H131.905V89.7207L134.7 86.6094C135.044 86.2266 135.31 85.9023 135.497 85.6367C135.689 85.3672 135.821 85.127 135.896 84.916C135.974 84.7012 136.013 84.4824 136.013 84.2598C136.013 83.9785 135.954 83.7246 135.837 83.498C135.724 83.2676 135.556 83.084 135.333 82.9473C135.111 82.8105 134.841 82.7422 134.525 82.7422C134.146 82.7422 133.829 82.8164 133.575 82.9648C133.325 83.1094 133.138 83.3125 133.013 83.5742C132.888 83.8359 132.825 84.1367 132.825 84.4766H131.741C131.741 83.9961 131.847 83.5566 132.058 83.1582C132.269 82.7598 132.581 82.4434 132.995 82.209C133.409 81.9707 133.919 81.8516 134.525 81.8516C135.064 81.8516 135.525 81.9473 135.907 82.1387C136.29 82.3262 136.583 82.5918 136.786 82.9355C136.993 83.2754 137.097 83.6738 137.097 84.1309C137.097 84.3809 137.054 84.6348 136.968 84.8926C136.886 85.1465 136.771 85.4004 136.622 85.6543C136.478 85.9082 136.308 86.1582 136.112 86.4043C135.921 86.6504 135.716 86.8926 135.497 87.1309L133.212 89.6094H137.489ZM144.479 89.6094V90.5H138.895V89.7207L141.69 86.6094C142.034 86.2266 142.3 85.9023 142.487 85.6367C142.679 85.3672 142.811 85.127 142.886 84.916C142.964 84.7012 143.003 84.4824 143.003 84.2598C143.003 83.9785 142.944 83.7246 142.827 83.498C142.714 83.2676 142.546 83.084 142.323 82.9473C142.101 82.8105 141.831 82.7422 141.515 82.7422C141.136 82.7422 140.819 82.8164 140.565 82.9648C140.315 83.1094 140.128 83.3125 140.003 83.5742C139.878 83.8359 139.815 84.1367 139.815 84.4766H138.731C138.731 83.9961 138.837 83.5566 139.048 83.1582C139.259 82.7598 139.571 82.4434 139.985 82.209C140.399 81.9707 140.909 81.8516 141.515 81.8516C142.054 81.8516 142.515 81.9473 142.897 82.1387C143.28 82.3262 143.573 82.5918 143.776 82.9355C143.983 83.2754 144.087 83.6738 144.087 84.1309C144.087 84.3809 144.044 84.6348 143.958 84.8926C143.876 85.1465 143.761 85.4004 143.612 85.6543C143.468 85.9082 143.298 86.1582 143.102 86.4043C142.911 86.6504 142.706 86.8926 142.487 87.1309L140.202 89.6094H144.479ZM150.708 88.3438C150.708 88.1445 150.676 87.9688 150.614 87.8164C150.555 87.6602 150.45 87.5195 150.298 87.3945C150.149 87.2695 149.942 87.1504 149.676 87.0371C149.415 86.9238 149.083 86.8086 148.68 86.6914C148.259 86.5664 147.878 86.4277 147.538 86.2754C147.198 86.1191 146.907 85.9414 146.665 85.7422C146.423 85.543 146.237 85.3145 146.108 85.0566C145.979 84.7988 145.915 84.5039 145.915 84.1719C145.915 83.8398 145.983 83.5332 146.12 83.252C146.257 82.9707 146.452 82.7266 146.706 82.5195C146.964 82.3086 147.27 82.1445 147.626 82.0273C147.981 81.9102 148.378 81.8516 148.815 81.8516C149.456 81.8516 149.999 81.9746 150.444 82.2207C150.893 82.4629 151.235 82.7812 151.469 83.1758C151.704 83.5664 151.821 83.9844 151.821 84.4297H150.696C150.696 84.1094 150.628 83.8262 150.491 83.5801C150.354 83.3301 150.147 83.1348 149.87 82.9941C149.592 82.8496 149.241 82.7773 148.815 82.7773C148.413 82.7773 148.081 82.8379 147.819 82.959C147.557 83.0801 147.362 83.2441 147.233 83.4512C147.108 83.6582 147.046 83.8945 147.046 84.1602C147.046 84.3398 147.083 84.5039 147.157 84.6523C147.235 84.7969 147.354 84.9316 147.514 85.0566C147.678 85.1816 147.885 85.2969 148.135 85.4023C148.389 85.5078 148.692 85.6094 149.044 85.707C149.528 85.8438 149.946 85.9961 150.298 86.1641C150.649 86.332 150.938 86.5215 151.165 86.7324C151.395 86.9395 151.565 87.1758 151.675 87.4414C151.788 87.7031 151.844 88 151.844 88.332C151.844 88.6797 151.774 88.9941 151.634 89.2754C151.493 89.5566 151.292 89.7969 151.03 89.9961C150.768 90.1953 150.454 90.3496 150.087 90.459C149.723 90.5645 149.317 90.6172 148.868 90.6172C148.473 90.6172 148.085 90.5625 147.702 90.4531C147.323 90.3438 146.977 90.1797 146.665 89.9609C146.356 89.7422 146.108 89.4727 145.921 89.1523C145.737 88.8281 145.645 88.4531 145.645 88.0273H146.77C146.77 88.3203 146.827 88.5723 146.94 88.7832C147.053 88.9902 147.208 89.1621 147.403 89.2988C147.602 89.4355 147.827 89.5371 148.077 89.6035C148.331 89.666 148.594 89.6973 148.868 89.6973C149.262 89.6973 149.596 89.6426 149.87 89.5332C150.143 89.4238 150.35 89.2676 150.491 89.0645C150.635 88.8613 150.708 88.6211 150.708 88.3438ZM159.098 85.6367V86.5566H154.481V85.6367H159.098ZM154.657 81.9688V90.5H153.526V81.9688H154.657ZM160.083 81.9688V90.5H158.958V81.9688H160.083ZM162.332 81.9688H165.156C165.797 81.9688 166.338 82.0664 166.78 82.2617C167.225 82.457 167.563 82.7461 167.793 83.1289C168.028 83.5078 168.145 83.9746 168.145 84.5293C168.145 84.9199 168.065 85.2773 167.905 85.6016C167.748 85.9219 167.522 86.1953 167.225 86.4219C166.932 86.6445 166.58 86.8105 166.17 86.9199L165.854 87.043H163.199L163.188 86.123H165.192C165.598 86.123 165.936 86.0527 166.205 85.9121C166.475 85.7676 166.678 85.5742 166.815 85.332C166.951 85.0898 167.02 84.8223 167.02 84.5293C167.02 84.2012 166.955 83.9141 166.826 83.668C166.697 83.4219 166.494 83.2324 166.217 83.0996C165.944 82.9629 165.59 82.8945 165.156 82.8945H163.463V90.5H162.332V81.9688ZM167.319 90.5L165.244 86.6328L166.422 86.627L168.526 90.4297V90.5H167.319ZM175.451 87.6289V88.5195H169.287V87.8809L173.107 81.9688H173.992L173.043 83.6797L170.518 87.6289H175.451ZM174.262 81.9688V90.5H173.178V81.9688H174.262ZM182.189 81.9688V82.5781L178.656 90.5H177.513L181.041 82.8594H176.424V81.9688H182.189ZM188.494 88.3438C188.494 88.1445 188.462 87.9688 188.4 87.8164C188.341 87.6602 188.236 87.5195 188.084 87.3945C187.935 87.2695 187.728 87.1504 187.462 87.0371C187.201 86.9238 186.869 86.8086 186.466 86.6914C186.044 86.5664 185.664 86.4277 185.324 86.2754C184.984 86.1191 184.693 85.9414 184.451 85.7422C184.209 85.543 184.023 85.3145 183.894 85.0566C183.765 84.7988 183.701 84.5039 183.701 84.1719C183.701 83.8398 183.769 83.5332 183.906 83.252C184.043 82.9707 184.238 82.7266 184.492 82.5195C184.75 82.3086 185.056 82.1445 185.412 82.0273C185.767 81.9102 186.164 81.8516 186.601 81.8516C187.242 81.8516 187.785 81.9746 188.23 82.2207C188.679 82.4629 189.021 82.7812 189.255 83.1758C189.49 83.5664 189.607 83.9844 189.607 84.4297H188.482C188.482 84.1094 188.414 83.8262 188.277 83.5801C188.14 83.3301 187.933 83.1348 187.656 82.9941C187.378 82.8496 187.027 82.7773 186.601 82.7773C186.199 82.7773 185.867 82.8379 185.605 82.959C185.343 83.0801 185.148 83.2441 185.019 83.4512C184.894 83.6582 184.832 83.8945 184.832 84.1602C184.832 84.3398 184.869 84.5039 184.943 84.6523C185.021 84.7969 185.14 84.9316 185.3 85.0566C185.464 85.1816 185.671 85.2969 185.921 85.4023C186.175 85.5078 186.478 85.6094 186.83 85.707C187.314 85.8438 187.732 85.9961 188.084 86.1641C188.435 86.332 188.724 86.5215 188.951 86.7324C189.181 86.9395 189.351 87.1758 189.46 87.4414C189.574 87.7031 189.63 88 189.63 88.332C189.63 88.6797 189.56 88.9941 189.419 89.2754C189.279 89.5566 189.078 89.7969 188.816 89.9961C188.554 90.1953 188.24 90.3496 187.873 90.459C187.509 90.5645 187.103 90.6172 186.654 90.6172C186.259 90.6172 185.871 90.5625 185.488 90.4531C185.109 90.3438 184.763 90.1797 184.451 89.9609C184.142 89.7422 183.894 89.4727 183.707 89.1523C183.523 88.8281 183.431 88.4531 183.431 88.0273H184.556C184.556 88.3203 184.613 88.5723 184.726 88.7832C184.839 88.9902 184.994 89.1621 185.189 89.2988C185.388 89.4355 185.613 89.5371 185.863 89.6035C186.117 89.666 186.38 89.6973 186.654 89.6973C187.048 89.6973 187.382 89.6426 187.656 89.5332C187.929 89.4238 188.136 89.2676 188.277 89.0645C188.421 88.8613 188.494 88.6211 188.494 88.3438ZM194.47 82.7246L191.646 90.5H190.491L193.743 81.9688H194.488L194.47 82.7246ZM196.837 90.5L194.007 82.7246L193.99 81.9688H194.734L197.997 90.5H196.837ZM196.691 87.3418V88.2676H191.898V87.3418H196.691ZM202.661 81.9219V90.5H201.577V83.2754L199.392 84.0723V83.0938L202.491 81.9219H202.661ZM211.854 87.6289V88.5195H205.69V87.8809L209.511 81.9688H210.395L209.446 83.6797L206.921 87.6289H211.854ZM210.665 81.9688V90.5H209.581V81.9688H210.665ZM215.669 90.5H213.887L213.899 89.5801H215.669C216.278 89.5801 216.786 89.4531 217.192 89.1992C217.598 88.9414 217.903 88.582 218.106 88.1211C218.313 87.6562 218.417 87.1133 218.417 86.4922V85.9707C218.417 85.4824 218.358 85.0488 218.241 84.6699C218.124 84.2871 217.952 83.9648 217.725 83.7031C217.499 83.4375 217.221 83.2363 216.893 83.0996C216.569 82.9629 216.196 82.8945 215.774 82.8945H213.852V81.9688H215.774C216.333 81.9688 216.842 82.0625 217.303 82.25C217.764 82.4336 218.161 82.7012 218.493 83.0527C218.829 83.4004 219.086 83.8223 219.266 84.3184C219.446 84.8105 219.536 85.3652 219.536 85.9824V86.4922C219.536 87.1094 219.446 87.666 219.266 88.1621C219.086 88.6543 218.827 89.0742 218.487 89.4219C218.151 89.7695 217.745 90.0371 217.268 90.2246C216.795 90.4082 216.262 90.5 215.669 90.5ZM214.491 81.9688V90.5H213.36V81.9688H214.491ZM222.565 86.4395L221.698 86.2168L222.125 81.9688H226.502V82.9707H223.045L222.787 85.291C222.944 85.2012 223.141 85.1172 223.379 85.0391C223.621 84.9609 223.899 84.9219 224.211 84.9219C224.606 84.9219 224.959 84.9902 225.272 85.127C225.584 85.2598 225.85 85.4512 226.069 85.7012C226.291 85.9512 226.461 86.252 226.578 86.6035C226.696 86.9551 226.754 87.3477 226.754 87.7812C226.754 88.1914 226.698 88.5684 226.584 88.9121C226.475 89.2559 226.309 89.5566 226.086 89.8145C225.864 90.0684 225.582 90.2656 225.243 90.4062C224.907 90.5469 224.51 90.6172 224.053 90.6172C223.709 90.6172 223.383 90.5703 223.075 90.4766C222.77 90.3789 222.496 90.2324 222.254 90.0371C222.016 89.8379 221.821 89.5918 221.668 89.2988C221.52 89.002 221.426 88.6543 221.387 88.2559H222.418C222.465 88.5762 222.559 88.8457 222.7 89.0645C222.84 89.2832 223.024 89.4492 223.25 89.5625C223.481 89.6719 223.748 89.7266 224.053 89.7266C224.311 89.7266 224.539 89.6816 224.739 89.5918C224.938 89.502 225.106 89.373 225.243 89.2051C225.379 89.0371 225.483 88.834 225.553 88.5957C225.627 88.3574 225.664 88.0898 225.664 87.793C225.664 87.5234 225.627 87.2734 225.553 87.043C225.479 86.8125 225.368 86.6113 225.219 86.4395C225.075 86.2676 224.897 86.1348 224.686 86.041C224.475 85.9434 224.233 85.8945 223.959 85.8945C223.596 85.8945 223.321 85.9434 223.133 86.041C222.95 86.1387 222.76 86.2715 222.565 86.4395Z" fill="#1B1A1A"/>
<rect x="103" y="67" width="138" height="36" rx="18" stroke="white" stroke-opacity="0.5"/>
<defs>
<clipPath id="clip0_1353_64252">
<rect width="12.4927" height="12.4927" fill="white" transform="translate(66.2539 180.754)"/>
</clipPath>
<clipPath id="clip1_1353_64252">
<rect width="13" height="13" fill="white" transform="translate(67.5 129.5)"/>
</clipPath>
</defs>
</svg>
