<svg width="270" height="251" viewBox="0 0 270 251" fill="none" xmlns="http://www.w3.org/2000/svg">
<g opacity="0.9">
<path d="M109.773 128.603H116.958C117.345 133.24 121.208 136.871 125.998 136.871H129.398C129.861 136.871 130.171 136.562 130.171 136.098V119.564C130.171 119.1 129.862 118.791 129.398 118.791H125.998C121.285 118.791 117.422 122.422 116.958 127.058H109.773C109.309 127.058 109 127.367 109 127.831C109 128.295 109.309 128.603 109.773 128.603V128.603ZM125.998 120.336H128.625V135.326H125.998C121.903 135.326 118.504 131.926 118.504 127.831C118.504 123.736 121.826 120.336 125.998 120.336Z" fill="white"/>
<path d="M135.425 131.308C134.962 131.308 134.652 131.616 134.652 132.081C134.652 132.544 134.961 132.853 135.425 132.853H139.83V136.176C139.83 136.639 140.138 136.948 140.602 136.948H144.002C148.715 136.948 152.579 133.317 153.042 128.681H160.228C160.691 128.681 161 128.372 161 127.908C161 127.444 160.692 127.135 160.228 127.135H153.042C152.656 122.499 148.793 118.867 144.002 118.867H140.602C140.139 118.867 139.83 119.176 139.83 119.64V122.962H135.425C134.962 122.962 134.652 123.271 134.652 123.735C134.652 124.199 134.961 124.508 135.425 124.508H139.83V131.385H135.425V131.308ZM141.298 120.336H143.924C148.02 120.336 151.419 123.736 151.419 127.831C151.419 131.926 148.019 135.325 143.924 135.325H141.298V120.336Z" fill="white"/>
</g>
<rect x="78.2899" y="78.2899" width="113.42" height="94.4203" rx="18.1667" stroke="white" stroke-opacity="0.3" stroke-width="1.57971"/>
<rect x="75.1304" y="75.1304" width="119.739" height="100.739" rx="20.3696" stroke="white" stroke-opacity="0.08" stroke-width="4.73913"/>
<rect x="50.2899" y="50.2899" width="169.42" height="150.42" rx="35.2101" stroke="white" stroke-opacity="0.15" stroke-width="1.57971"/>
<rect x="25.2899" y="25.2899" width="219.42" height="200.42" rx="36.2101" stroke="white" stroke-opacity="0.05" stroke-width="1.57971"/>
<rect x="0.5" y="-0.5" width="268" height="249" rx="39.5" transform="matrix(1 0 0 -1 0.5 249.5)" stroke="white" stroke-opacity="0.1"/>
</svg>
